%TF.GenerationSoftware,KiCad,Pcbnew,(5.1.10)-1*%
%TF.CreationDate,2021-09-23T19:03:45-07:00*%
%TF.ProjectId,adelheid,6164656c-6865-4696-942e-6b696361645f,2.0*%
%TF.SameCoordinates,Original*%
%TF.FileFunction,Soldermask,Top*%
%TF.FilePolarity,Negative*%
%FSLAX46Y46*%
G04 Gerber Fmt 4.6, Leading zero omitted, Abs format (unit mm)*
G04 Created by KiCad (PCBNEW (5.1.10)-1) date 2021-09-23 19:03:45*
%MOMM*%
%LPD*%
G01*
G04 APERTURE LIST*
%ADD10C,4.089800*%
%ADD11C,1.852000*%
%ADD12C,2.102000*%
%ADD13C,3.150000*%
%ADD14O,1.302000X2.002000*%
%ADD15C,1.202000*%
%ADD16C,4.502000*%
G04 APERTURE END LIST*
D10*
X249859800Y-40538400D03*
D11*
X244890810Y-41594591D03*
X254828790Y-39482209D03*
D10*
X231228900Y-44500800D03*
D11*
X226259910Y-45556991D03*
X236197890Y-43444609D03*
D12*
X323110000Y-41830000D03*
X323110000Y-36830000D03*
G36*
G01*
X314459000Y-45930000D02*
X314459000Y-43930000D01*
G75*
G02*
X314510000Y-43879000I51000J0D01*
G01*
X317710000Y-43879000D01*
G75*
G02*
X317761000Y-43930000I0J-51000D01*
G01*
X317761000Y-45930000D01*
G75*
G02*
X317710000Y-45981000I-51000J0D01*
G01*
X314510000Y-45981000D01*
G75*
G02*
X314459000Y-45930000I0J51000D01*
G01*
G37*
G36*
G01*
X314459000Y-34730000D02*
X314459000Y-32730000D01*
G75*
G02*
X314510000Y-32679000I51000J0D01*
G01*
X317710000Y-32679000D01*
G75*
G02*
X317761000Y-32730000I0J-51000D01*
G01*
X317761000Y-34730000D01*
G75*
G02*
X317710000Y-34781000I-51000J0D01*
G01*
X314510000Y-34781000D01*
G75*
G02*
X314459000Y-34730000I0J51000D01*
G01*
G37*
X308610000Y-41830000D03*
X308610000Y-39330000D03*
G36*
G01*
X307559000Y-37830000D02*
X307559000Y-35830000D01*
G75*
G02*
X307610000Y-35779000I51000J0D01*
G01*
X309610000Y-35779000D01*
G75*
G02*
X309661000Y-35830000I0J-51000D01*
G01*
X309661000Y-37830000D01*
G75*
G02*
X309610000Y-37881000I-51000J0D01*
G01*
X307610000Y-37881000D01*
G75*
G02*
X307559000Y-37830000I0J51000D01*
G01*
G37*
D10*
X189318900Y-53416200D03*
D11*
X184349910Y-54472391D03*
X194287890Y-52360009D03*
D10*
X131635500Y-149263100D03*
D11*
X126666510Y-148206909D03*
X136604490Y-150319291D03*
D13*
X118506111Y-153613411D03*
X141860363Y-158577511D03*
D10*
X121674685Y-138706442D03*
X145028937Y-143670541D03*
X319239900Y-101180900D03*
D11*
X314159900Y-101180900D03*
X324319900Y-101180900D03*
D13*
X307301900Y-108165900D03*
X331177900Y-108165900D03*
D10*
X307301900Y-92925900D03*
X331177900Y-92925900D03*
D14*
X179176700Y-25863200D03*
X171876700Y-25863200D03*
D15*
X177126700Y-31283200D03*
X176326700Y-30083200D03*
X175526700Y-31283200D03*
X174726700Y-30083200D03*
X173926700Y-31283200D03*
D10*
X41516300Y-101180900D03*
D11*
X36436300Y-101180900D03*
X46596300Y-101180900D03*
D10*
X47980600Y-82143600D03*
D11*
X42900600Y-82143600D03*
X53060600Y-82143600D03*
D10*
X252031500Y-142303500D03*
D11*
X247062510Y-143359691D03*
X257000490Y-141247309D03*
D10*
X39776400Y-139293600D03*
D11*
X34696400Y-139293600D03*
X44856400Y-139293600D03*
D10*
X354965000Y-144043400D03*
D11*
X349885000Y-144043400D03*
X360045000Y-144043400D03*
D10*
X354952300Y-96418400D03*
D11*
X349872300Y-96418400D03*
X360032300Y-96418400D03*
D10*
X350685100Y-77368400D03*
D11*
X345605100Y-77368400D03*
X355765100Y-77368400D03*
D10*
X346532200Y-58331100D03*
D11*
X341452200Y-58331100D03*
X351612200Y-58331100D03*
D10*
X322707000Y-63080900D03*
D11*
X317627000Y-63080900D03*
X327787000Y-63080900D03*
D10*
X342315800Y-39281100D03*
D11*
X337235800Y-39281100D03*
X347395800Y-39281100D03*
D10*
X335915000Y-144043400D03*
D11*
X330835000Y-144043400D03*
X340995000Y-144043400D03*
D10*
X335915000Y-124993400D03*
D11*
X330835000Y-124993400D03*
X340995000Y-124993400D03*
D10*
X322110100Y-82143600D03*
D11*
X317030100Y-82143600D03*
X327190100Y-82143600D03*
D10*
X303669700Y-63093600D03*
D11*
X298589700Y-63093600D03*
X308749700Y-63093600D03*
D10*
X316852300Y-144043400D03*
D11*
X311772300Y-144043400D03*
X321932300Y-144043400D03*
D10*
X298297600Y-82130900D03*
D11*
X293217600Y-82130900D03*
X303377600Y-82130900D03*
D10*
X284607000Y-63093600D03*
D11*
X279527000Y-63093600D03*
X289687000Y-63093600D03*
D10*
X289687000Y-37795200D03*
D11*
X284607000Y-37795200D03*
X294767000Y-37795200D03*
D10*
X304977800Y-120243600D03*
D11*
X299897800Y-120243600D03*
X310057800Y-120243600D03*
D10*
X288290000Y-101206300D03*
D11*
X283210000Y-101206300D03*
X293370000Y-101206300D03*
D10*
X279260300Y-82130900D03*
D11*
X274180300Y-82130900D03*
X284340300Y-82130900D03*
D10*
X265569700Y-61595000D03*
D11*
X260489700Y-61595000D03*
X270649700Y-61595000D03*
D10*
X270624300Y-37795200D03*
D11*
X265544300Y-37795200D03*
X275704300Y-37795200D03*
D10*
X278765000Y-120230900D03*
D11*
X273685000Y-120230900D03*
X283845000Y-120230900D03*
D10*
X269240000Y-101206300D03*
D11*
X264160000Y-101206300D03*
X274320000Y-101206300D03*
D10*
X258762500Y-82461100D03*
D11*
X253793510Y-83517291D03*
X263731490Y-81404909D03*
D10*
X245516400Y-65824100D03*
D11*
X240547410Y-66880291D03*
X250485390Y-64767909D03*
D10*
X257390900Y-121691400D03*
D11*
X252421910Y-122747591D03*
X262359890Y-120635209D03*
D10*
X248742200Y-104051100D03*
D11*
X243773210Y-105107291D03*
X253711190Y-102994909D03*
D10*
X240131600Y-86410800D03*
D11*
X235162610Y-87466991D03*
X245100590Y-85354609D03*
D10*
X226860100Y-69761100D03*
D11*
X221891110Y-70817291D03*
X231829090Y-68704909D03*
D10*
X238747300Y-125653800D03*
D11*
X233778310Y-126709991D03*
X243716290Y-124597609D03*
D10*
X230136700Y-107988100D03*
D11*
X225167710Y-109044291D03*
X235105690Y-106931909D03*
D10*
X221500700Y-90373200D03*
D11*
X216531710Y-91429391D03*
X226469690Y-89317009D03*
D10*
X208254600Y-73736200D03*
D11*
X203285610Y-74792391D03*
X213223590Y-72680009D03*
D10*
X207949800Y-49453800D03*
D11*
X202980810Y-50509991D03*
X212918790Y-48397609D03*
D10*
X212445600Y-150710900D03*
D11*
X207476610Y-151767091D03*
X217414590Y-149654709D03*
D13*
X202220737Y-160025311D03*
X225574989Y-155061211D03*
D10*
X199052163Y-145118341D03*
X222406415Y-140154242D03*
X220129100Y-129616200D03*
D11*
X215160110Y-130672391D03*
X225098090Y-128560009D03*
D10*
X211505800Y-111963200D03*
D11*
X206536810Y-113019391D03*
X216474790Y-110907009D03*
D10*
X202882500Y-94322900D03*
D11*
X197913510Y-95379091D03*
X207851490Y-93266709D03*
D10*
X189611000Y-77685900D03*
D11*
X184642010Y-78742091D03*
X194579990Y-76629709D03*
D10*
X201485500Y-133591300D03*
D11*
X196516510Y-134647491D03*
X206454490Y-132535109D03*
D10*
X192874900Y-115938300D03*
D11*
X187905910Y-116994491D03*
X197843890Y-114882109D03*
D10*
X184264300Y-98298000D03*
D11*
X179295310Y-99354191D03*
X189233290Y-97241809D03*
D10*
X161493200Y-77685900D03*
D11*
X156524210Y-76629709D03*
X166462190Y-78742091D03*
D10*
X161734500Y-53428900D03*
D11*
X156765510Y-52372709D03*
X166703490Y-54485091D03*
D10*
X159588200Y-155194000D03*
D11*
X154619210Y-154137809D03*
X164557190Y-156250191D03*
D10*
X154216100Y-134569200D03*
D11*
X149247110Y-133513009D03*
X159185090Y-135625391D03*
D10*
X148856700Y-113957100D03*
D11*
X143887710Y-112900909D03*
X153825690Y-115013291D03*
D10*
X148183600Y-94322900D03*
D11*
X143214610Y-93266709D03*
X153152590Y-95379091D03*
D10*
X142849600Y-73748900D03*
D11*
X137880610Y-72692709D03*
X147818590Y-74805091D03*
D10*
X143116300Y-49466500D03*
D11*
X138147310Y-48410309D03*
X148085290Y-50522691D03*
D10*
X135585200Y-130619500D03*
D11*
X130616210Y-129563309D03*
X140554190Y-131675691D03*
D10*
X130213100Y-109994700D03*
D11*
X125244110Y-108938509D03*
X135182090Y-111050891D03*
D10*
X129540000Y-90411300D03*
D11*
X124571010Y-89355109D03*
X134508990Y-91467491D03*
D10*
X124206000Y-69786500D03*
D11*
X119237010Y-68730309D03*
X129174990Y-70842691D03*
D10*
X119849900Y-44500800D03*
D11*
X114880910Y-43444609D03*
X124818890Y-45556991D03*
D10*
X116941600Y-126657100D03*
D11*
X111972610Y-125600909D03*
X121910590Y-127713291D03*
D10*
X111620300Y-106070400D03*
D11*
X106651310Y-105014209D03*
X116589290Y-107126591D03*
D10*
X110921800Y-86436200D03*
D11*
X105952810Y-85380009D03*
X115890790Y-87492391D03*
D10*
X105575100Y-65811400D03*
D11*
X100606110Y-64755209D03*
X110544090Y-66867591D03*
D10*
X101231700Y-40551100D03*
D11*
X96262710Y-39494909D03*
X106200690Y-41607291D03*
D10*
X99034600Y-142328900D03*
D11*
X94065610Y-141272709D03*
X104003590Y-143385091D03*
D10*
X98323400Y-122707400D03*
D11*
X93354410Y-121651209D03*
X103292390Y-123763591D03*
D10*
X92989400Y-102108000D03*
D11*
X88020410Y-101051809D03*
X97958390Y-103164191D03*
D10*
X92290900Y-82473800D03*
D11*
X87321910Y-81417609D03*
X97259890Y-83529991D03*
D10*
X85483700Y-61607700D03*
D11*
X80403700Y-61607700D03*
X90563700Y-61607700D03*
D10*
X80429100Y-37769800D03*
D11*
X75349100Y-37769800D03*
X85509100Y-37769800D03*
D10*
X77838300Y-120230900D03*
D11*
X72758300Y-120230900D03*
X82918300Y-120230900D03*
D10*
X72466200Y-101193600D03*
D11*
X67386200Y-101193600D03*
X77546200Y-101193600D03*
X76873100Y-82143600D03*
X66713100Y-82143600D03*
D10*
X71793100Y-82143600D03*
X66438368Y-63093600D03*
D11*
X61358368Y-63093600D03*
X71518368Y-63093600D03*
D10*
X61366400Y-37782500D03*
D11*
X56286400Y-37782500D03*
X66446400Y-37782500D03*
D10*
X46913800Y-120243600D03*
D11*
X41833800Y-120243600D03*
X51993800Y-120243600D03*
D13*
X34975800Y-113258600D03*
X58851800Y-113258600D03*
D10*
X34975800Y-128498600D03*
X58851800Y-128498600D03*
X46278800Y-101180900D03*
D11*
X41198800Y-101180900D03*
X51358800Y-101180900D03*
D10*
X47383700Y-63093600D03*
D11*
X42303700Y-63093600D03*
X52463700Y-63093600D03*
D10*
X37426900Y-39293800D03*
D11*
X32346900Y-39293800D03*
X42506900Y-39293800D03*
D16*
X56896000Y-72644000D03*
X345440000Y-134493000D03*
X240665000Y-144526000D03*
X337058000Y-48768000D03*
X52324000Y-139573000D03*
X111760000Y-145034000D03*
G36*
G01*
X219825000Y-27266000D02*
X219825000Y-25566000D01*
G75*
G02*
X219876000Y-25515000I51000J0D01*
G01*
X221576000Y-25515000D01*
G75*
G02*
X221627000Y-25566000I0J-51000D01*
G01*
X221627000Y-27266000D01*
G75*
G02*
X221576000Y-27317000I-51000J0D01*
G01*
X219876000Y-27317000D01*
G75*
G02*
X219825000Y-27266000I0J51000D01*
G01*
G37*
G36*
G01*
X217285000Y-27266000D02*
X217285000Y-25566000D01*
G75*
G02*
X217336000Y-25515000I51000J0D01*
G01*
X219036000Y-25515000D01*
G75*
G02*
X219087000Y-25566000I0J-51000D01*
G01*
X219087000Y-27266000D01*
G75*
G02*
X219036000Y-27317000I-51000J0D01*
G01*
X217336000Y-27317000D01*
G75*
G02*
X217285000Y-27266000I0J51000D01*
G01*
G37*
G36*
G01*
X214745000Y-27266000D02*
X214745000Y-25566000D01*
G75*
G02*
X214796000Y-25515000I51000J0D01*
G01*
X216496000Y-25515000D01*
G75*
G02*
X216547000Y-25566000I0J-51000D01*
G01*
X216547000Y-27266000D01*
G75*
G02*
X216496000Y-27317000I-51000J0D01*
G01*
X214796000Y-27317000D01*
G75*
G02*
X214745000Y-27266000I0J51000D01*
G01*
G37*
G36*
G01*
X212205000Y-27266000D02*
X212205000Y-25566000D01*
G75*
G02*
X212256000Y-25515000I51000J0D01*
G01*
X213956000Y-25515000D01*
G75*
G02*
X214007000Y-25566000I0J-51000D01*
G01*
X214007000Y-27266000D01*
G75*
G02*
X213956000Y-27317000I-51000J0D01*
G01*
X212256000Y-27317000D01*
G75*
G02*
X212205000Y-27266000I0J51000D01*
G01*
G37*
G36*
G01*
X209665000Y-27266000D02*
X209665000Y-25566000D01*
G75*
G02*
X209716000Y-25515000I51000J0D01*
G01*
X211416000Y-25515000D01*
G75*
G02*
X211467000Y-25566000I0J-51000D01*
G01*
X211467000Y-27266000D01*
G75*
G02*
X211416000Y-27317000I-51000J0D01*
G01*
X209716000Y-27317000D01*
G75*
G02*
X209665000Y-27266000I0J51000D01*
G01*
G37*
G36*
G01*
X207125000Y-27266000D02*
X207125000Y-25566000D01*
G75*
G02*
X207176000Y-25515000I51000J0D01*
G01*
X208876000Y-25515000D01*
G75*
G02*
X208927000Y-25566000I0J-51000D01*
G01*
X208927000Y-27266000D01*
G75*
G02*
X208876000Y-27317000I-51000J0D01*
G01*
X207176000Y-27317000D01*
G75*
G02*
X207125000Y-27266000I0J51000D01*
G01*
G37*
G36*
G01*
X150483000Y-27266000D02*
X150483000Y-25566000D01*
G75*
G02*
X150534000Y-25515000I51000J0D01*
G01*
X152234000Y-25515000D01*
G75*
G02*
X152285000Y-25566000I0J-51000D01*
G01*
X152285000Y-27266000D01*
G75*
G02*
X152234000Y-27317000I-51000J0D01*
G01*
X150534000Y-27317000D01*
G75*
G02*
X150483000Y-27266000I0J51000D01*
G01*
G37*
G36*
G01*
X145403000Y-27266000D02*
X145403000Y-25566000D01*
G75*
G02*
X145454000Y-25515000I51000J0D01*
G01*
X147154000Y-25515000D01*
G75*
G02*
X147205000Y-25566000I0J-51000D01*
G01*
X147205000Y-27266000D01*
G75*
G02*
X147154000Y-27317000I-51000J0D01*
G01*
X145454000Y-27317000D01*
G75*
G02*
X145403000Y-27266000I0J51000D01*
G01*
G37*
G36*
G01*
X147943000Y-27266000D02*
X147943000Y-25566000D01*
G75*
G02*
X147994000Y-25515000I51000J0D01*
G01*
X149694000Y-25515000D01*
G75*
G02*
X149745000Y-25566000I0J-51000D01*
G01*
X149745000Y-27266000D01*
G75*
G02*
X149694000Y-27317000I-51000J0D01*
G01*
X147994000Y-27317000D01*
G75*
G02*
X147943000Y-27266000I0J51000D01*
G01*
G37*
G36*
G01*
X142863000Y-27266000D02*
X142863000Y-25566000D01*
G75*
G02*
X142914000Y-25515000I51000J0D01*
G01*
X144614000Y-25515000D01*
G75*
G02*
X144665000Y-25566000I0J-51000D01*
G01*
X144665000Y-27266000D01*
G75*
G02*
X144614000Y-27317000I-51000J0D01*
G01*
X142914000Y-27317000D01*
G75*
G02*
X142863000Y-27266000I0J51000D01*
G01*
G37*
X121827220Y-27932509D03*
X229192785Y-27932509D03*
M02*
