%FSLAX45Y45*%
G04 Gerber Fmt 4.5, Leading zero omitted, Abs format (unit mm)*
G04 Created by KiCad (PCBNEW (5.1.10)-1) date 2021-09-23 19:07:07*
%MOMM*%
%LPD*%
G01*
G04 APERTURE LIST*
%TA.AperFunction,Profile*%
%ADD10C,0.150000*%
%TD*%
%ADD11C,0.200000*%
%ADD12C,0.300000*%
G04 APERTURE END LIST*
D10*
X36249995Y-15370750D02*
G75*
G03*
X36449995Y-15170750I0J200000D01*
G01*
X36249995Y-2443251D02*
G75*
G02*
X36449995Y-2643251I0J-200000D01*
G01*
X2741250Y-2443251D02*
G75*
G03*
X2541250Y-2643251I0J-200000D01*
G01*
X2741250Y-15370750D02*
G75*
G02*
X2541250Y-15170750I0J200000D01*
G01*
X18263000Y-16762523D02*
X24811000Y-15370750D01*
X16860000Y-16762523D02*
X18263000Y-16762523D01*
X10312670Y-15370750D02*
X16860000Y-16762523D01*
X24811000Y-15370750D02*
X36249995Y-15370750D01*
X2741250Y-15370750D02*
X10312670Y-15370750D01*
X2741250Y-2443251D02*
X36249995Y-2443251D01*
X36449995Y-2643251D02*
X36449995Y-15170750D01*
X2541250Y-2643251D02*
X2541250Y-15170750D01*
D11*
X4945700Y-3523300D02*
X4985700Y-3563300D01*
X4985700Y-3523300D02*
X4945700Y-3563300D01*
X5188270Y-4215450D02*
X5228270Y-4255450D01*
X5228270Y-4215450D02*
X5188270Y-4255450D01*
X5495170Y-12312530D02*
X5535170Y-12352530D01*
X5535170Y-12312530D02*
X5495170Y-12352530D01*
X5504500Y-9047800D02*
X5544500Y-9087800D01*
X5544500Y-9047800D02*
X5504500Y-9087800D01*
X5507040Y-10440990D02*
X5547040Y-10480990D01*
X5547040Y-10440990D02*
X5507040Y-10480990D01*
X5690409Y-6566251D02*
X5730409Y-6606251D01*
X5730409Y-6566251D02*
X5690409Y-6606251D01*
X6050600Y-14324650D02*
X6090600Y-14364650D01*
X6090600Y-14324650D02*
X6050600Y-14364650D01*
X6073460Y-2875600D02*
X6113460Y-2915600D01*
X6113460Y-2875600D02*
X6073460Y-2915600D01*
X7039930Y-2672400D02*
X7079930Y-2712400D01*
X7079930Y-2672400D02*
X7039930Y-2712400D01*
X7257100Y-14597700D02*
X7297100Y-14637700D01*
X7297100Y-14597700D02*
X7257100Y-14637700D01*
X7644450Y-2932750D02*
X7684450Y-2972750D01*
X7684450Y-2932750D02*
X7644450Y-2972750D01*
X12304319Y-4812111D02*
X12344319Y-4852111D01*
X12344319Y-4812111D02*
X12304319Y-4852111D01*
X12752390Y-3080070D02*
X12792390Y-3120070D01*
X12792390Y-3080070D02*
X12752390Y-3120070D01*
X12876850Y-2878140D02*
X12916850Y-2918140D01*
X12916850Y-2878140D02*
X12876850Y-2918140D01*
X13213400Y-4348800D02*
X13253400Y-4388800D01*
X13253400Y-4348800D02*
X13213400Y-4388800D01*
X14976315Y-3271685D02*
X15016315Y-3311685D01*
X15016315Y-3271685D02*
X14976315Y-3311685D01*
X15093000Y-3942400D02*
X15133000Y-3982400D01*
X15133000Y-3942400D02*
X15093000Y-3982400D01*
X15093000Y-4120200D02*
X15133000Y-4160200D01*
X15133000Y-4120200D02*
X15093000Y-4160200D01*
X15245400Y-3332800D02*
X15285400Y-3372800D01*
X15285400Y-3332800D02*
X15245400Y-3372800D01*
X15347000Y-3218500D02*
X15387000Y-3258500D01*
X15387000Y-3218500D02*
X15347000Y-3258500D01*
X15474000Y-2621600D02*
X15514000Y-2661600D01*
X15514000Y-2621600D02*
X15474000Y-2661600D01*
X15475300Y-4436400D02*
X15515300Y-4476400D01*
X15515300Y-4436400D02*
X15475300Y-4476400D01*
X15702600Y-4526600D02*
X15742600Y-4566600D01*
X15742600Y-4526600D02*
X15702600Y-4566600D01*
X15766100Y-3802700D02*
X15806100Y-3842700D01*
X15806100Y-3802700D02*
X15766100Y-3842700D01*
X16223650Y-3713450D02*
X16263650Y-3753450D01*
X16263650Y-3713450D02*
X16223650Y-3753450D01*
X16286800Y-3612200D02*
X16326800Y-3652200D01*
X16326800Y-3612200D02*
X16286800Y-3652200D01*
X16286800Y-3815400D02*
X16326800Y-3855400D01*
X16326800Y-3815400D02*
X16286800Y-3855400D01*
X16363000Y-3028000D02*
X16403000Y-3068000D01*
X16403000Y-3028000D02*
X16363000Y-3068000D01*
X16369280Y-5696340D02*
X16409280Y-5736340D01*
X16409280Y-5696340D02*
X16369280Y-5736340D01*
X16642400Y-2621600D02*
X16682400Y-2661600D01*
X16682400Y-2621600D02*
X16642400Y-2661600D01*
X16642400Y-6291900D02*
X16682400Y-6331900D01*
X16682400Y-6291900D02*
X16642400Y-6331900D01*
X16645400Y-3028000D02*
X16685400Y-3068000D01*
X16685400Y-3028000D02*
X16645400Y-3068000D01*
X16693200Y-3955100D02*
X16733200Y-3995100D01*
X16733200Y-3955100D02*
X16693200Y-3995100D01*
X16836695Y-6219495D02*
X16876695Y-6259495D01*
X16876695Y-6219495D02*
X16836695Y-6259495D01*
X16947200Y-5466400D02*
X16987200Y-5506400D01*
X16987200Y-5466400D02*
X16947200Y-5506400D01*
X16972600Y-3663000D02*
X17012600Y-3703000D01*
X17012600Y-3663000D02*
X16972600Y-3703000D01*
X16996220Y-3238820D02*
X17036220Y-3278820D01*
X17036220Y-3238820D02*
X16996220Y-3278820D01*
X16999045Y-2564675D02*
X17039045Y-2604675D01*
X17039045Y-2564675D02*
X16999045Y-2604675D01*
X17103901Y-3013301D02*
X17143901Y-3053301D01*
X17143901Y-3013301D02*
X17103901Y-3053301D01*
X17150400Y-3891600D02*
X17190400Y-3931600D01*
X17190400Y-3891600D02*
X17150400Y-3931600D01*
X17150400Y-4399600D02*
X17190400Y-4439600D01*
X17190400Y-4399600D02*
X17150400Y-4439600D01*
X17150400Y-4577400D02*
X17190400Y-4617400D01*
X17190400Y-4577400D02*
X17150400Y-4617400D01*
X17291400Y-5084100D02*
X17331400Y-5124100D01*
X17331400Y-5084100D02*
X17291400Y-5124100D01*
X17569500Y-7320600D02*
X17609500Y-7360600D01*
X17609500Y-7320600D02*
X17569500Y-7360600D01*
X17771400Y-5508814D02*
X17811400Y-5548814D01*
X17811400Y-5508814D02*
X17771400Y-5548814D01*
X17771400Y-9430040D02*
X17811400Y-9470040D01*
X17811400Y-9430040D02*
X17771400Y-9470040D01*
X17823500Y-4590100D02*
X17863500Y-4630100D01*
X17863500Y-4590100D02*
X17823500Y-4630100D01*
X17836200Y-5796600D02*
X17876200Y-5836600D01*
X17876200Y-5796600D02*
X17836200Y-5836600D01*
X17887000Y-3917000D02*
X17927000Y-3957000D01*
X17927000Y-3917000D02*
X17887000Y-3957000D01*
X17912400Y-5898200D02*
X17952400Y-5938200D01*
X17952400Y-5898200D02*
X17912400Y-5938200D01*
X17937800Y-5161600D02*
X17977800Y-5201600D01*
X17977800Y-5161600D02*
X17937800Y-5201600D01*
X17950500Y-4590100D02*
X17990500Y-4630100D01*
X17990500Y-4590100D02*
X17950500Y-4630100D01*
X18090200Y-2723200D02*
X18130200Y-2763200D01*
X18130200Y-2723200D02*
X18090200Y-2763200D01*
X18166400Y-3459800D02*
X18206400Y-3499800D01*
X18206400Y-3459800D02*
X18166400Y-3499800D01*
X18293400Y-2723200D02*
X18333400Y-2763200D01*
X18333400Y-2723200D02*
X18293400Y-2763200D01*
X18293400Y-3459800D02*
X18333400Y-3499800D01*
X18333400Y-3459800D02*
X18293400Y-3499800D01*
X18293400Y-4018600D02*
X18333400Y-4058600D01*
X18333400Y-4018600D02*
X18293400Y-4058600D01*
X18344200Y-5009200D02*
X18384200Y-5049200D01*
X18384200Y-5009200D02*
X18344200Y-5049200D01*
X18420400Y-3459800D02*
X18460400Y-3499800D01*
X18460400Y-3459800D02*
X18420400Y-3499800D01*
X18547400Y-3459800D02*
X18587400Y-3499800D01*
X18587400Y-3459800D02*
X18547400Y-3499800D01*
X18547400Y-3586800D02*
X18587400Y-3626800D01*
X18587400Y-3586800D02*
X18547400Y-3626800D01*
X18623600Y-3256600D02*
X18663600Y-3296600D01*
X18663600Y-3256600D02*
X18623600Y-3296600D01*
X19080800Y-3459800D02*
X19120800Y-3499800D01*
X19120800Y-3459800D02*
X19080800Y-3499800D01*
X19157000Y-3003598D02*
X19197000Y-3043598D01*
X19197000Y-3003598D02*
X19157000Y-3043598D01*
X19411000Y-3193599D02*
X19451000Y-3233599D01*
X19451000Y-3193599D02*
X19411000Y-3233599D01*
X19639600Y-4780600D02*
X19679600Y-4820600D01*
X19679600Y-4780600D02*
X19639600Y-4820600D01*
X19741200Y-4774900D02*
X19781200Y-4814900D01*
X19781200Y-4774900D02*
X19741200Y-4814900D01*
X19766600Y-2824800D02*
X19806600Y-2864800D01*
X19806600Y-2824800D02*
X19766600Y-2864800D01*
X19842800Y-4769200D02*
X19882800Y-4809200D01*
X19882800Y-4769200D02*
X19842800Y-4809200D01*
X19944400Y-7574600D02*
X19984400Y-7614600D01*
X19984400Y-7574600D02*
X19944400Y-7614600D01*
X20046000Y-5314000D02*
X20086000Y-5354000D01*
X20086000Y-5314000D02*
X20046000Y-5354000D01*
X20287300Y-15194600D02*
X20327300Y-15234600D01*
X20327300Y-15194600D02*
X20287300Y-15234600D01*
X20325400Y-3193599D02*
X20365400Y-3233599D01*
X20365400Y-3193599D02*
X20325400Y-3233599D01*
X20325400Y-3637600D02*
X20365400Y-3677600D01*
X20365400Y-3637600D02*
X20325400Y-3677600D01*
X20952365Y-2918365D02*
X20992365Y-2958365D01*
X20992365Y-2918365D02*
X20952365Y-2958365D01*
X21125500Y-3028000D02*
X21165500Y-3068000D01*
X21165500Y-3028000D02*
X21125500Y-3068000D01*
X21227100Y-9263700D02*
X21267100Y-9303700D01*
X21267100Y-9263700D02*
X21227100Y-9303700D01*
X21570000Y-3028000D02*
X21610000Y-3068000D01*
X21610000Y-3028000D02*
X21570000Y-3068000D01*
X22117523Y-11016300D02*
X22157523Y-11056300D01*
X22157523Y-11016300D02*
X22117523Y-11056300D01*
X22281200Y-4310700D02*
X22321200Y-4350700D01*
X22321200Y-4310700D02*
X22281200Y-4350700D01*
X22840000Y-3256600D02*
X22880000Y-3296600D01*
X22880000Y-3256600D02*
X22840000Y-3296600D01*
X22967000Y-12781600D02*
X23007000Y-12821600D01*
X23007000Y-12781600D02*
X22967000Y-12821600D01*
X23524530Y-2879410D02*
X23564530Y-2919410D01*
X23564530Y-2879410D02*
X23524530Y-2919410D01*
X24004757Y-4558517D02*
X24044757Y-4598517D01*
X24044757Y-4558517D02*
X24004757Y-4598517D01*
X24176040Y-2673670D02*
X24216040Y-2713670D01*
X24216040Y-2673670D02*
X24176040Y-2713670D01*
X27942860Y-2875600D02*
X27982860Y-2915600D01*
X27982860Y-2875600D02*
X27942860Y-2915600D01*
X27992650Y-4040450D02*
X28032650Y-4080450D01*
X28032650Y-4040450D02*
X27992650Y-4080450D01*
X28563890Y-2672400D02*
X28603890Y-2712400D01*
X28603890Y-2672400D02*
X28563890Y-2712400D01*
X30510800Y-3891600D02*
X30550800Y-3931600D01*
X30550800Y-3891600D02*
X30510800Y-3931600D01*
X32522480Y-2902270D02*
X32562480Y-2942270D01*
X32562480Y-2902270D02*
X32522480Y-2942270D01*
X32701360Y-4055240D02*
X32741360Y-4095240D01*
X32741360Y-4055240D02*
X32701360Y-4095240D01*
X32873000Y-5034600D02*
X32913000Y-5074600D01*
X32913000Y-5034600D02*
X32873000Y-5074600D01*
X33473710Y-2697800D02*
X33513710Y-2737800D01*
X33513710Y-2697800D02*
X33473710Y-2737800D01*
X33850900Y-6952300D02*
X33890900Y-6992300D01*
X33890900Y-6952300D02*
X33850900Y-6992300D01*
X35260600Y-13607100D02*
X35300600Y-13647100D01*
X35300600Y-13607100D02*
X35260600Y-13647100D01*
X17427670Y-3128320D02*
G75*
G03*
X17427670Y-3128320I-35000J0D01*
G01*
X17507670Y-3008320D02*
G75*
G03*
X17507670Y-3008320I-35000J0D01*
G01*
X17587670Y-3128320D02*
G75*
G03*
X17587670Y-3128320I-35000J0D01*
G01*
X17667670Y-3008320D02*
G75*
G03*
X17667670Y-3008320I-35000J0D01*
G01*
X17747670Y-3128320D02*
G75*
G03*
X17747670Y-3128320I-35000J0D01*
G01*
X17187670Y-2546320D02*
X17187670Y-2626320D01*
X17147670Y-2586320D02*
X17227670Y-2586320D01*
X17157670Y-2551320D02*
X17157670Y-2621320D01*
X17217670Y-2551320D02*
X17217670Y-2621320D01*
X17157670Y-2621320D02*
G75*
G03*
X17217670Y-2621320I30000J0D01*
G01*
X17217670Y-2551320D02*
G75*
G03*
X17157670Y-2551320I-30000J0D01*
G01*
X17917670Y-2546320D02*
X17917670Y-2626320D01*
X17877670Y-2586320D02*
X17957670Y-2586320D01*
X17887670Y-2551320D02*
X17887670Y-2621320D01*
X17947670Y-2551320D02*
X17947670Y-2621320D01*
X17887670Y-2621320D02*
G75*
G03*
X17947670Y-2621320I30000J0D01*
G01*
X17947670Y-2551320D02*
G75*
G03*
X17887670Y-2551320I-30000J0D01*
G01*
X14411756Y-2676956D02*
X14411756Y-2606244D01*
X14341044Y-2606244D01*
X14341044Y-2676956D01*
X14411756Y-2676956D01*
X14665756Y-2676956D02*
X14665756Y-2606244D01*
X14595044Y-2606244D01*
X14595044Y-2676956D01*
X14665756Y-2676956D01*
X14919756Y-2676956D02*
X14919756Y-2606244D01*
X14849044Y-2606244D01*
X14849044Y-2676956D01*
X14919756Y-2676956D01*
X15173756Y-2676956D02*
X15173756Y-2606244D01*
X15103044Y-2606244D01*
X15103044Y-2676956D01*
X15173756Y-2676956D01*
X20837956Y-2676956D02*
X20837956Y-2606244D01*
X20767244Y-2606244D01*
X20767244Y-2676956D01*
X20837956Y-2676956D01*
X21091956Y-2676956D02*
X21091956Y-2606244D01*
X21021244Y-2606244D01*
X21021244Y-2676956D01*
X21091956Y-2676956D01*
X21345956Y-2676956D02*
X21345956Y-2606244D01*
X21275244Y-2606244D01*
X21275244Y-2676956D01*
X21345956Y-2676956D01*
X21599956Y-2676956D02*
X21599956Y-2606244D01*
X21529244Y-2606244D01*
X21529244Y-2676956D01*
X21599956Y-2676956D01*
X21853956Y-2676956D02*
X21853956Y-2606244D01*
X21783244Y-2606244D01*
X21783244Y-2676956D01*
X21853956Y-2676956D01*
X22107956Y-2676956D02*
X22107956Y-2606244D01*
X22037244Y-2606244D01*
X22037244Y-2676956D01*
X22107956Y-2676956D01*
X30896356Y-3718356D02*
X30896356Y-3647644D01*
X30825644Y-3647644D01*
X30825644Y-3718356D01*
X30896356Y-3718356D01*
X30896356Y-3968356D02*
X30896356Y-3897644D01*
X30825644Y-3897644D01*
X30825644Y-3968356D01*
X30896356Y-3968356D01*
X30896356Y-4218356D02*
X30896356Y-4147644D01*
X30825644Y-4147644D01*
X30825644Y-4218356D01*
X30896356Y-4218356D01*
X32346356Y-3718356D02*
X32346356Y-3647644D01*
X32275644Y-3647644D01*
X32275644Y-3718356D01*
X32346356Y-3718356D01*
X32346356Y-4218356D02*
X32346356Y-4147644D01*
X32275644Y-4147644D01*
X32275644Y-4218356D01*
X32346356Y-4218356D01*
X3615690Y-4489380D02*
X3667690Y-4437380D01*
X3615690Y-4385380D01*
X3563690Y-4437380D01*
X3615690Y-4489380D01*
X3850640Y-14489360D02*
X3902640Y-14437360D01*
X3850640Y-14385360D01*
X3798640Y-14437360D01*
X3850640Y-14489360D01*
X3869690Y-4489380D02*
X3921690Y-4437380D01*
X3869690Y-4385380D01*
X3817690Y-4437380D01*
X3869690Y-4489380D01*
X4024630Y-10678090D02*
X4076630Y-10626090D01*
X4024630Y-10574090D01*
X3972630Y-10626090D01*
X4024630Y-10678090D01*
X4104640Y-14489360D02*
X4156640Y-14437360D01*
X4104640Y-14385360D01*
X4052640Y-14437360D01*
X4104640Y-14489360D01*
X4278630Y-10678090D02*
X4330630Y-10626090D01*
X4278630Y-10574090D01*
X4226630Y-10626090D01*
X4278630Y-10678090D01*
X4500880Y-10678090D02*
X4552880Y-10626090D01*
X4500880Y-10574090D01*
X4448880Y-10626090D01*
X4500880Y-10678090D01*
X4564380Y-12584360D02*
X4616380Y-12532360D01*
X4564380Y-12480360D01*
X4512380Y-12532360D01*
X4564380Y-12584360D01*
X4611370Y-6869360D02*
X4663370Y-6817360D01*
X4611370Y-6765360D01*
X4559370Y-6817360D01*
X4611370Y-6869360D01*
X4671060Y-8774360D02*
X4723060Y-8722360D01*
X4671060Y-8670360D01*
X4619060Y-8722360D01*
X4671060Y-8774360D01*
X4754880Y-10678090D02*
X4806880Y-10626090D01*
X4754880Y-10574090D01*
X4702880Y-10626090D01*
X4754880Y-10678090D01*
X4818380Y-12584360D02*
X4870380Y-12532360D01*
X4818380Y-12480360D01*
X4766380Y-12532360D01*
X4818380Y-12584360D01*
X4865370Y-6869360D02*
X4917370Y-6817360D01*
X4865370Y-6765360D01*
X4813370Y-6817360D01*
X4865370Y-6869360D01*
X4925060Y-8774360D02*
X4977060Y-8722360D01*
X4925060Y-8670360D01*
X4873060Y-8722360D01*
X4925060Y-8774360D01*
X6009640Y-4338250D02*
X6061640Y-4286250D01*
X6009640Y-4234250D01*
X5957640Y-4286250D01*
X6009640Y-4338250D01*
X6263640Y-4338250D02*
X6315640Y-4286250D01*
X6263640Y-4234250D01*
X6211640Y-4286250D01*
X6263640Y-4338250D01*
X6516837Y-6869360D02*
X6568837Y-6817360D01*
X6516837Y-6765360D01*
X6464837Y-6817360D01*
X6516837Y-6869360D01*
X6770837Y-6869360D02*
X6822837Y-6817360D01*
X6770837Y-6765360D01*
X6718837Y-6817360D01*
X6770837Y-6869360D01*
X7052310Y-8774360D02*
X7104310Y-8722360D01*
X7052310Y-8670360D01*
X7000310Y-8722360D01*
X7052310Y-8774360D01*
X7119620Y-10679360D02*
X7171620Y-10627360D01*
X7119620Y-10575360D01*
X7067620Y-10627360D01*
X7119620Y-10679360D01*
X7306310Y-8774360D02*
X7358310Y-8722360D01*
X7306310Y-8670360D01*
X7254310Y-8722360D01*
X7306310Y-8774360D01*
X7373620Y-10679360D02*
X7425620Y-10627360D01*
X7373620Y-10575360D01*
X7321620Y-10627360D01*
X7373620Y-10679360D01*
X7656830Y-12583090D02*
X7708830Y-12531090D01*
X7656830Y-12479090D01*
X7604830Y-12531090D01*
X7656830Y-12583090D01*
X7910830Y-12583090D02*
X7962830Y-12531090D01*
X7910830Y-12479090D01*
X7858830Y-12531090D01*
X7910830Y-12583090D01*
X7915910Y-4336980D02*
X7967910Y-4284980D01*
X7915910Y-4232980D01*
X7863910Y-4284980D01*
X7915910Y-4336980D01*
X8169910Y-4336980D02*
X8221910Y-4284980D01*
X8169910Y-4232980D01*
X8117910Y-4284980D01*
X8169910Y-4336980D01*
X8421370Y-6720770D02*
X8473370Y-6668770D01*
X8421370Y-6616770D01*
X8369370Y-6668770D01*
X8421370Y-6720770D01*
X8675370Y-6720770D02*
X8727370Y-6668770D01*
X8675370Y-6616770D01*
X8623370Y-6668770D01*
X8675370Y-6720770D01*
X8999246Y-8769874D02*
X9051246Y-8717874D01*
X8999246Y-8665874D01*
X8947246Y-8717874D01*
X8999246Y-8769874D01*
X9069096Y-10733294D02*
X9121096Y-10681294D01*
X9069096Y-10629294D01*
X9017096Y-10681294D01*
X9069096Y-10733294D01*
X9247696Y-8822684D02*
X9299696Y-8770684D01*
X9247696Y-8718684D01*
X9195696Y-8770684D01*
X9247696Y-8822684D01*
X9317546Y-10786104D02*
X9369546Y-10734104D01*
X9317546Y-10682104D01*
X9265546Y-10734104D01*
X9317546Y-10786104D01*
X9602496Y-12793234D02*
X9654496Y-12741234D01*
X9602496Y-12689234D01*
X9550496Y-12741234D01*
X9602496Y-12793234D01*
X9673616Y-14755384D02*
X9725616Y-14703384D01*
X9673616Y-14651384D01*
X9621616Y-14703384D01*
X9673616Y-14755384D01*
X9850946Y-12846044D02*
X9902946Y-12794044D01*
X9850946Y-12742044D01*
X9798946Y-12794044D01*
X9850946Y-12846044D01*
X9893326Y-4577604D02*
X9945326Y-4525604D01*
X9893326Y-4473604D01*
X9841326Y-4525604D01*
X9893326Y-4577604D01*
X9922066Y-14808194D02*
X9974066Y-14756194D01*
X9922066Y-14704194D01*
X9870066Y-14756194D01*
X9922066Y-14808194D01*
X10141776Y-4630414D02*
X10193776Y-4578414D01*
X10141776Y-4526414D01*
X10089776Y-4578414D01*
X10141776Y-4630414D01*
X10327666Y-7103634D02*
X10379666Y-7051634D01*
X10327666Y-6999634D01*
X10275666Y-7051634D01*
X10327666Y-7103634D01*
X10576116Y-7156444D02*
X10628116Y-7104444D01*
X10576116Y-7052444D01*
X10524116Y-7104444D01*
X10576116Y-7156444D01*
X10862336Y-9166114D02*
X10914336Y-9114114D01*
X10862336Y-9062114D01*
X10810336Y-9114114D01*
X10862336Y-9166114D01*
X10932186Y-11129534D02*
X10984186Y-11077534D01*
X10932186Y-11025534D01*
X10880186Y-11077534D01*
X10932186Y-11129534D01*
X11110786Y-9218924D02*
X11162786Y-9166924D01*
X11110786Y-9114924D01*
X11058786Y-9166924D01*
X11110786Y-9218924D01*
X11180636Y-11182344D02*
X11232636Y-11130344D01*
X11180636Y-11078344D01*
X11128636Y-11130344D01*
X11180636Y-11182344D01*
X11464316Y-13188204D02*
X11516316Y-13136204D01*
X11464316Y-13084204D01*
X11412316Y-13136204D01*
X11464316Y-13188204D01*
X11712766Y-13241014D02*
X11764766Y-13189014D01*
X11712766Y-13137014D01*
X11660766Y-13189014D01*
X11712766Y-13241014D01*
X11755146Y-4972574D02*
X11807146Y-4920574D01*
X11755146Y-4868574D01*
X11703146Y-4920574D01*
X11755146Y-4972574D01*
X12003596Y-5025384D02*
X12055596Y-4973384D01*
X12003596Y-4921384D01*
X11951596Y-4973384D01*
X12003596Y-5025384D01*
X12190756Y-7501144D02*
X12242756Y-7449144D01*
X12190756Y-7397144D01*
X12138756Y-7449144D01*
X12190756Y-7501144D01*
X12439206Y-7553954D02*
X12491206Y-7501954D01*
X12439206Y-7449954D01*
X12387206Y-7501954D01*
X12439206Y-7553954D01*
X12724156Y-9563624D02*
X12776156Y-9511624D01*
X12724156Y-9459624D01*
X12672156Y-9511624D01*
X12724156Y-9563624D01*
X12791466Y-11521964D02*
X12843466Y-11469964D01*
X12791466Y-11417964D01*
X12739466Y-11469964D01*
X12791466Y-11521964D01*
X12933706Y-15448804D02*
X12985706Y-15396804D01*
X12933706Y-15344804D01*
X12881706Y-15396804D01*
X12933706Y-15448804D01*
X12972606Y-9616434D02*
X13024606Y-9564434D01*
X12972606Y-9512434D01*
X12920606Y-9564434D01*
X12972606Y-9616434D01*
X13039916Y-11574774D02*
X13091916Y-11522774D01*
X13039916Y-11470774D01*
X12987916Y-11522774D01*
X13039916Y-11574774D01*
X13182156Y-15501614D02*
X13234156Y-15449614D01*
X13182156Y-15397614D01*
X13130156Y-15449614D01*
X13182156Y-15501614D01*
X13328676Y-13584444D02*
X13380676Y-13532444D01*
X13328676Y-13480444D01*
X13276676Y-13532444D01*
X13328676Y-13584444D01*
X13577126Y-13637254D02*
X13629126Y-13585254D01*
X13577126Y-13533254D01*
X13525126Y-13585254D01*
X13577126Y-13637254D01*
X14055116Y-7897384D02*
X14107116Y-7845384D01*
X14055116Y-7793384D01*
X14003116Y-7845384D01*
X14055116Y-7897384D01*
X14081786Y-5469144D02*
X14133786Y-5417144D01*
X14081786Y-5365144D01*
X14029786Y-5417144D01*
X14081786Y-5469144D01*
X14303566Y-7950194D02*
X14355566Y-7898194D01*
X14303566Y-7846194D01*
X14251566Y-7898194D01*
X14303566Y-7950194D01*
X14330236Y-5521954D02*
X14382236Y-5469954D01*
X14330236Y-5417954D01*
X14278236Y-5469954D01*
X14330236Y-5521954D01*
X14588516Y-9954784D02*
X14640516Y-9902784D01*
X14588516Y-9850784D01*
X14536516Y-9902784D01*
X14588516Y-9954784D01*
X14655826Y-11918204D02*
X14707826Y-11866204D01*
X14655826Y-11814204D01*
X14603826Y-11866204D01*
X14655826Y-11918204D01*
X14836966Y-10007594D02*
X14888966Y-9955594D01*
X14836966Y-9903594D01*
X14784966Y-9955594D01*
X14836966Y-10007594D01*
X14904276Y-11971014D02*
X14956276Y-11919014D01*
X14904276Y-11867014D01*
X14852276Y-11919014D01*
X14904276Y-11971014D01*
X15191766Y-13979414D02*
X15243766Y-13927414D01*
X15191766Y-13875414D01*
X15139766Y-13927414D01*
X15191766Y-13979414D01*
X15440216Y-14032224D02*
X15492216Y-13980224D01*
X15440216Y-13928224D01*
X15388216Y-13980224D01*
X15440216Y-14032224D01*
X15728976Y-16041894D02*
X15780976Y-15989894D01*
X15728976Y-15937894D01*
X15676976Y-15989894D01*
X15728976Y-16041894D01*
X15919476Y-8291084D02*
X15971476Y-8239084D01*
X15919476Y-8187084D01*
X15867476Y-8239084D01*
X15919476Y-8291084D01*
X15943606Y-5865384D02*
X15995606Y-5813384D01*
X15943606Y-5761384D01*
X15891606Y-5813384D01*
X15943606Y-5865384D01*
X15977426Y-16094704D02*
X16029426Y-16042704D01*
X15977426Y-15990704D01*
X15925426Y-16042704D01*
X15977426Y-16094704D01*
X16167926Y-8343894D02*
X16219926Y-8291894D01*
X16167926Y-8239894D01*
X16115926Y-8291894D01*
X16167926Y-8343894D01*
X16192056Y-5918194D02*
X16244056Y-5866194D01*
X16192056Y-5814194D01*
X16140056Y-5866194D01*
X16192056Y-5918194D01*
X18407824Y-10405104D02*
X18459824Y-10353104D01*
X18407824Y-10301104D01*
X18355824Y-10353104D01*
X18407824Y-10405104D01*
X18656274Y-10352294D02*
X18708274Y-10300294D01*
X18656274Y-10248294D01*
X18604274Y-10300294D01*
X18656274Y-10352294D01*
X18913284Y-5916924D02*
X18965284Y-5864924D01*
X18913284Y-5812924D01*
X18861284Y-5864924D01*
X18913284Y-5916924D01*
X18942494Y-8343894D02*
X18994494Y-8291894D01*
X18942494Y-8239894D01*
X18890494Y-8291894D01*
X18942494Y-8343894D01*
X19161734Y-5864114D02*
X19213734Y-5812114D01*
X19161734Y-5760114D01*
X19109734Y-5812114D01*
X19161734Y-5864114D01*
X19190944Y-8291084D02*
X19242944Y-8239084D01*
X19190944Y-8187084D01*
X19138944Y-8239084D01*
X19190944Y-8291084D01*
X19268884Y-12169134D02*
X19320884Y-12117134D01*
X19268884Y-12065134D01*
X19216884Y-12117134D01*
X19268884Y-12169134D01*
X19517334Y-12116324D02*
X19569334Y-12064324D01*
X19517334Y-12012324D01*
X19465334Y-12064324D01*
X19517334Y-12116324D01*
X20129944Y-13934434D02*
X20181944Y-13882434D01*
X20129944Y-13830434D01*
X20077944Y-13882434D01*
X20129944Y-13934434D01*
X20269644Y-10007594D02*
X20321644Y-9955594D01*
X20269644Y-9903594D01*
X20217644Y-9955594D01*
X20269644Y-10007594D01*
X20378394Y-13881624D02*
X20430394Y-13829624D01*
X20378394Y-13777624D01*
X20326394Y-13829624D01*
X20378394Y-13881624D01*
X20518094Y-9954784D02*
X20570094Y-9902784D01*
X20518094Y-9850784D01*
X20466094Y-9902784D01*
X20518094Y-9954784D01*
X20776374Y-5520684D02*
X20828374Y-5468684D01*
X20776374Y-5416684D01*
X20724374Y-5468684D01*
X20776374Y-5520684D01*
X20806854Y-7948924D02*
X20858854Y-7896924D01*
X20806854Y-7844924D01*
X20754854Y-7896924D01*
X20806854Y-7948924D01*
X21024824Y-5467874D02*
X21076824Y-5415874D01*
X21024824Y-5363874D01*
X20972824Y-5415874D01*
X21024824Y-5467874D01*
X21055304Y-7896114D02*
X21107304Y-7844114D01*
X21055304Y-7792114D01*
X21003304Y-7844114D01*
X21055304Y-7896114D01*
X21131974Y-11771624D02*
X21183974Y-11719624D01*
X21131974Y-11667624D01*
X21079974Y-11719624D01*
X21131974Y-11771624D01*
X21225954Y-15646394D02*
X21277954Y-15594394D01*
X21225954Y-15542394D01*
X21173954Y-15594394D01*
X21225954Y-15646394D01*
X21380424Y-11718814D02*
X21432424Y-11666814D01*
X21380424Y-11614814D01*
X21328424Y-11666814D01*
X21380424Y-11718814D01*
X21474404Y-15593584D02*
X21526404Y-15541584D01*
X21474404Y-15489584D01*
X21422404Y-15541584D01*
X21474404Y-15593584D01*
X21994304Y-13536924D02*
X22046304Y-13484924D01*
X21994304Y-13432924D01*
X21942304Y-13484924D01*
X21994304Y-13536924D01*
X22131464Y-9612624D02*
X22183464Y-9560624D01*
X22131464Y-9508624D01*
X22079464Y-9560624D01*
X22131464Y-9612624D01*
X22242754Y-13484114D02*
X22294754Y-13432114D01*
X22242754Y-13380114D01*
X22190754Y-13432114D01*
X22242754Y-13484114D01*
X22379914Y-9559814D02*
X22431914Y-9507814D01*
X22379914Y-9455814D01*
X22327914Y-9507814D01*
X22379914Y-9559814D01*
X22667404Y-7551414D02*
X22719404Y-7499414D01*
X22667404Y-7447414D01*
X22615404Y-7499414D01*
X22667404Y-7551414D01*
X22915854Y-7498604D02*
X22967854Y-7446604D01*
X22915854Y-7394604D01*
X22863854Y-7446604D01*
X22915854Y-7498604D01*
X22995064Y-11374114D02*
X23047064Y-11322114D01*
X22995064Y-11270114D01*
X22943064Y-11322114D01*
X22995064Y-11374114D01*
X23104284Y-5025384D02*
X23156284Y-4973384D01*
X23104284Y-4921384D01*
X23052284Y-4973384D01*
X23104284Y-5025384D01*
X23243514Y-11321304D02*
X23295514Y-11269304D01*
X23243514Y-11217304D01*
X23191514Y-11269304D01*
X23243514Y-11321304D01*
X23352734Y-4972574D02*
X23404734Y-4920574D01*
X23352734Y-4868574D01*
X23300734Y-4920574D01*
X23352734Y-4972574D01*
X23856124Y-13140684D02*
X23908124Y-13088684D01*
X23856124Y-13036684D01*
X23804124Y-13088684D01*
X23856124Y-13140684D01*
X23994554Y-9216384D02*
X24046554Y-9164384D01*
X23994554Y-9112384D01*
X23942554Y-9164384D01*
X23994554Y-9216384D01*
X24104574Y-13087874D02*
X24156574Y-13035874D01*
X24104574Y-12983874D01*
X24052574Y-13035874D01*
X24104574Y-13087874D01*
X24243004Y-9163574D02*
X24295004Y-9111574D01*
X24243004Y-9059574D01*
X24191004Y-9111574D01*
X24243004Y-9163574D01*
X24533034Y-7157714D02*
X24585034Y-7105714D01*
X24533034Y-7053714D01*
X24481034Y-7105714D01*
X24533034Y-7157714D01*
X24781484Y-7104904D02*
X24833484Y-7052904D01*
X24781484Y-7000904D01*
X24729484Y-7052904D01*
X24781484Y-7104904D01*
X24855614Y-10980414D02*
X24907614Y-10928414D01*
X24855614Y-10876414D01*
X24803614Y-10928414D01*
X24855614Y-10980414D01*
X24967374Y-4629144D02*
X25019374Y-4577144D01*
X24967374Y-4525144D01*
X24915374Y-4577144D01*
X24967374Y-4629144D01*
X25104064Y-10927604D02*
X25156064Y-10875604D01*
X25104064Y-10823604D01*
X25052064Y-10875604D01*
X25104064Y-10927604D01*
X25184544Y-14805654D02*
X25236544Y-14753654D01*
X25184544Y-14701654D01*
X25132544Y-14753654D01*
X25184544Y-14805654D01*
X25215824Y-4576334D02*
X25267824Y-4524334D01*
X25215824Y-4472334D01*
X25163824Y-4524334D01*
X25215824Y-4576334D01*
X25432994Y-14752844D02*
X25484994Y-14700844D01*
X25432994Y-14648844D01*
X25380994Y-14700844D01*
X25432994Y-14752844D01*
X25720484Y-12744444D02*
X25772484Y-12692444D01*
X25720484Y-12640444D01*
X25668484Y-12692444D01*
X25720484Y-12744444D01*
X25857644Y-8821414D02*
X25909644Y-8769414D01*
X25857644Y-8717414D01*
X25805644Y-8769414D01*
X25857644Y-8821414D01*
X25968934Y-12691634D02*
X26020934Y-12639634D01*
X25968934Y-12587634D01*
X25916934Y-12639634D01*
X25968934Y-12691634D01*
X26106094Y-8768604D02*
X26158094Y-8716604D01*
X26106094Y-8664604D01*
X26054094Y-8716604D01*
X26106094Y-8768604D01*
X26429970Y-6719500D02*
X26481970Y-6667500D01*
X26429970Y-6615500D01*
X26377970Y-6667500D01*
X26429970Y-6719500D01*
X26683970Y-6719500D02*
X26735970Y-6667500D01*
X26683970Y-6615500D01*
X26631970Y-6667500D01*
X26683970Y-6719500D01*
X26797000Y-10680630D02*
X26849000Y-10628630D01*
X26797000Y-10576630D01*
X26745000Y-10628630D01*
X26797000Y-10680630D01*
X26935430Y-4339520D02*
X26987430Y-4287520D01*
X26935430Y-4235520D01*
X26883430Y-4287520D01*
X26935430Y-4339520D01*
X27051000Y-10680630D02*
X27103000Y-10628630D01*
X27051000Y-10576630D01*
X26999000Y-10628630D01*
X27051000Y-10680630D01*
X27189430Y-4339520D02*
X27241430Y-4287520D01*
X27189430Y-4235520D01*
X27137430Y-4287520D01*
X27189430Y-4339520D01*
X27749500Y-12583090D02*
X27801500Y-12531090D01*
X27749500Y-12479090D01*
X27697500Y-12531090D01*
X27749500Y-12583090D01*
X27799030Y-8773090D02*
X27851030Y-8721090D01*
X27799030Y-8669090D01*
X27747030Y-8721090D01*
X27799030Y-8773090D01*
X28003500Y-12583090D02*
X28055500Y-12531090D01*
X28003500Y-12479090D01*
X27951500Y-12531090D01*
X28003500Y-12583090D01*
X28053030Y-8773090D02*
X28105030Y-8721090D01*
X28053030Y-8669090D01*
X28001030Y-8721090D01*
X28053030Y-8773090D01*
X28333700Y-6869360D02*
X28385700Y-6817360D01*
X28333700Y-6765360D01*
X28281700Y-6817360D01*
X28333700Y-6869360D01*
X28587700Y-6869360D02*
X28639700Y-6817360D01*
X28587700Y-6765360D01*
X28535700Y-6817360D01*
X28587700Y-6869360D01*
X28702000Y-10680630D02*
X28754000Y-10628630D01*
X28702000Y-10576630D01*
X28650000Y-10628630D01*
X28702000Y-10680630D01*
X28841700Y-4339520D02*
X28893700Y-4287520D01*
X28841700Y-4235520D01*
X28789700Y-4287520D01*
X28841700Y-4339520D01*
X28956000Y-10680630D02*
X29008000Y-10628630D01*
X28956000Y-10576630D01*
X28904000Y-10628630D01*
X28956000Y-10680630D01*
X29095700Y-4339520D02*
X29147700Y-4287520D01*
X29095700Y-4235520D01*
X29043700Y-4287520D01*
X29095700Y-4339520D01*
X29702760Y-8773090D02*
X29754760Y-8721090D01*
X29702760Y-8669090D01*
X29650760Y-8721090D01*
X29702760Y-8773090D01*
X29956760Y-8773090D02*
X30008760Y-8721090D01*
X29956760Y-8669090D01*
X29904760Y-8721090D01*
X29956760Y-8773090D01*
X30239970Y-6869360D02*
X30291970Y-6817360D01*
X30239970Y-6765360D01*
X30187970Y-6817360D01*
X30239970Y-6869360D01*
X30370780Y-12584360D02*
X30422780Y-12532360D01*
X30370780Y-12480360D01*
X30318780Y-12532360D01*
X30370780Y-12584360D01*
X30493970Y-6869360D02*
X30545970Y-6817360D01*
X30493970Y-6765360D01*
X30441970Y-6817360D01*
X30493970Y-6869360D01*
X30624780Y-12584360D02*
X30676780Y-12532360D01*
X30624780Y-12480360D01*
X30572780Y-12532360D01*
X30624780Y-12584360D01*
X31558230Y-14964340D02*
X31610230Y-14912340D01*
X31558230Y-14860340D01*
X31506230Y-14912340D01*
X31558230Y-14964340D01*
X31796990Y-10678090D02*
X31848990Y-10626090D01*
X31796990Y-10574090D01*
X31744990Y-10626090D01*
X31796990Y-10678090D01*
X31812230Y-14964340D02*
X31864230Y-14912340D01*
X31812230Y-14860340D01*
X31760230Y-14912340D01*
X31812230Y-14964340D01*
X32050990Y-10678090D02*
X32102990Y-10626090D01*
X32050990Y-10574090D01*
X31998990Y-10626090D01*
X32050990Y-10678090D01*
X32084010Y-8774360D02*
X32136010Y-8722360D01*
X32084010Y-8670360D01*
X32032010Y-8722360D01*
X32084010Y-8774360D01*
X32143700Y-6868090D02*
X32195700Y-6816090D01*
X32143700Y-6764090D01*
X32091700Y-6816090D01*
X32143700Y-6868090D01*
X32338010Y-8774360D02*
X32390010Y-8722360D01*
X32338010Y-8670360D01*
X32286010Y-8722360D01*
X32338010Y-8774360D01*
X32397700Y-6868090D02*
X32449700Y-6816090D01*
X32397700Y-6764090D01*
X32345700Y-6816090D01*
X32397700Y-6868090D01*
X33464500Y-13059340D02*
X33516500Y-13007340D01*
X33464500Y-12955340D01*
X33412500Y-13007340D01*
X33464500Y-13059340D01*
X33464500Y-14964340D02*
X33516500Y-14912340D01*
X33464500Y-14860340D01*
X33412500Y-14912340D01*
X33464500Y-14964340D01*
X33718500Y-13059340D02*
X33770500Y-13007340D01*
X33718500Y-12955340D01*
X33666500Y-13007340D01*
X33718500Y-13059340D01*
X33718500Y-14964340D02*
X33770500Y-14912340D01*
X33718500Y-14860340D01*
X33666500Y-14912340D01*
X33718500Y-14964340D01*
X34104580Y-4488110D02*
X34156580Y-4436110D01*
X34104580Y-4384110D01*
X34052580Y-4436110D01*
X34104580Y-4488110D01*
X34358580Y-4488110D02*
X34410580Y-4436110D01*
X34358580Y-4384110D01*
X34306580Y-4436110D01*
X34358580Y-4488110D01*
X34526220Y-6393110D02*
X34578220Y-6341110D01*
X34526220Y-6289110D01*
X34474220Y-6341110D01*
X34526220Y-6393110D01*
X34780220Y-6393110D02*
X34832220Y-6341110D01*
X34780220Y-6289110D01*
X34728220Y-6341110D01*
X34780220Y-6393110D01*
X34941510Y-8296840D02*
X34993510Y-8244840D01*
X34941510Y-8192840D01*
X34889510Y-8244840D01*
X34941510Y-8296840D01*
X35195510Y-8296840D02*
X35247510Y-8244840D01*
X35195510Y-8192840D01*
X35143510Y-8244840D01*
X35195510Y-8296840D01*
X35368230Y-10201840D02*
X35420230Y-10149840D01*
X35368230Y-10097840D01*
X35316230Y-10149840D01*
X35368230Y-10201840D01*
X35369500Y-14964340D02*
X35421500Y-14912340D01*
X35369500Y-14860340D01*
X35317500Y-14912340D01*
X35369500Y-14964340D01*
X35622230Y-10201840D02*
X35674230Y-10149840D01*
X35622230Y-10097840D01*
X35570230Y-10149840D01*
X35622230Y-10201840D01*
X35623500Y-14964340D02*
X35675500Y-14912340D01*
X35623500Y-14860340D01*
X35571500Y-14912340D01*
X35623500Y-14964340D01*
X3288190Y-3601880D02*
X3435190Y-3748880D01*
X3435190Y-3601880D02*
X3288190Y-3748880D01*
X3435190Y-3675380D02*
G75*
G03*
X3435190Y-3675380I-73500J0D01*
G01*
X3523140Y-13601860D02*
X3670140Y-13748860D01*
X3670140Y-13601860D02*
X3523140Y-13748860D01*
X3670140Y-13675360D02*
G75*
G03*
X3670140Y-13675360I-73500J0D01*
G01*
X3697130Y-9790590D02*
X3844130Y-9937590D01*
X3844130Y-9790590D02*
X3697130Y-9937590D01*
X3844130Y-9864090D02*
G75*
G03*
X3844130Y-9864090I-73500J0D01*
G01*
X3923190Y-3347880D02*
X4070190Y-3494880D01*
X4070190Y-3347880D02*
X3923190Y-3494880D01*
X4070190Y-3421380D02*
G75*
G03*
X4070190Y-3421380I-73500J0D01*
G01*
X4158140Y-13347860D02*
X4305140Y-13494860D01*
X4305140Y-13347860D02*
X4158140Y-13494860D01*
X4305140Y-13421360D02*
G75*
G03*
X4305140Y-13421360I-73500J0D01*
G01*
X4173380Y-9790590D02*
X4320380Y-9937590D01*
X4320380Y-9790590D02*
X4173380Y-9937590D01*
X4320380Y-9864090D02*
G75*
G03*
X4320380Y-9864090I-73500J0D01*
G01*
X4236880Y-11696860D02*
X4383880Y-11843860D01*
X4383880Y-11696860D02*
X4236880Y-11843860D01*
X4383880Y-11770360D02*
G75*
G03*
X4383880Y-11770360I-73500J0D01*
G01*
X4283870Y-5981860D02*
X4430870Y-6128860D01*
X4430870Y-5981860D02*
X4283870Y-6128860D01*
X4430870Y-6055360D02*
G75*
G03*
X4430870Y-6055360I-73500J0D01*
G01*
X4332130Y-9536590D02*
X4479130Y-9683590D01*
X4479130Y-9536590D02*
X4332130Y-9683590D01*
X4479130Y-9610090D02*
G75*
G03*
X4479130Y-9610090I-73500J0D01*
G01*
X4343560Y-7886860D02*
X4490560Y-8033860D01*
X4490560Y-7886860D02*
X4343560Y-8033860D01*
X4490560Y-7960360D02*
G75*
G03*
X4490560Y-7960360I-73500J0D01*
G01*
X4808380Y-9536590D02*
X4955380Y-9683590D01*
X4955380Y-9536590D02*
X4808380Y-9683590D01*
X4955380Y-9610090D02*
G75*
G03*
X4955380Y-9610090I-73500J0D01*
G01*
X4871880Y-11442860D02*
X5018880Y-11589860D01*
X5018880Y-11442860D02*
X4871880Y-11589860D01*
X5018880Y-11516360D02*
G75*
G03*
X5018880Y-11516360I-73500J0D01*
G01*
X4918870Y-5727860D02*
X5065870Y-5874860D01*
X5065870Y-5727860D02*
X4918870Y-5874860D01*
X5065870Y-5801360D02*
G75*
G03*
X5065870Y-5801360I-73500J0D01*
G01*
X4978560Y-7632860D02*
X5125560Y-7779860D01*
X5125560Y-7632860D02*
X4978560Y-7779860D01*
X5125560Y-7706360D02*
G75*
G03*
X5125560Y-7706360I-73500J0D01*
G01*
X5682140Y-3450750D02*
X5829140Y-3597750D01*
X5829140Y-3450750D02*
X5682140Y-3597750D01*
X5829140Y-3524250D02*
G75*
G03*
X5829140Y-3524250I-73500J0D01*
G01*
X6189337Y-5981860D02*
X6336337Y-6128860D01*
X6336337Y-5981860D02*
X6189337Y-6128860D01*
X6336337Y-6055360D02*
G75*
G03*
X6336337Y-6055360I-73500J0D01*
G01*
X6317140Y-3196750D02*
X6464140Y-3343750D01*
X6464140Y-3196750D02*
X6317140Y-3343750D01*
X6464140Y-3270250D02*
G75*
G03*
X6464140Y-3270250I-73500J0D01*
G01*
X6724810Y-7886860D02*
X6871810Y-8033860D01*
X6871810Y-7886860D02*
X6724810Y-8033860D01*
X6871810Y-7960360D02*
G75*
G03*
X6871810Y-7960360I-73500J0D01*
G01*
X6792120Y-9791860D02*
X6939120Y-9938860D01*
X6939120Y-9791860D02*
X6792120Y-9938860D01*
X6939120Y-9865360D02*
G75*
G03*
X6939120Y-9865360I-73500J0D01*
G01*
X6824337Y-5727860D02*
X6971337Y-5874860D01*
X6971337Y-5727860D02*
X6824337Y-5874860D01*
X6971337Y-5801360D02*
G75*
G03*
X6971337Y-5801360I-73500J0D01*
G01*
X7329330Y-11695590D02*
X7476330Y-11842590D01*
X7476330Y-11695590D02*
X7329330Y-11842590D01*
X7476330Y-11769090D02*
G75*
G03*
X7476330Y-11769090I-73500J0D01*
G01*
X7359810Y-7632860D02*
X7506810Y-7779860D01*
X7506810Y-7632860D02*
X7359810Y-7779860D01*
X7506810Y-7706360D02*
G75*
G03*
X7506810Y-7706360I-73500J0D01*
G01*
X7427120Y-9537860D02*
X7574120Y-9684860D01*
X7574120Y-9537860D02*
X7427120Y-9684860D01*
X7574120Y-9611360D02*
G75*
G03*
X7574120Y-9611360I-73500J0D01*
G01*
X7588410Y-3449480D02*
X7735410Y-3596480D01*
X7735410Y-3449480D02*
X7588410Y-3596480D01*
X7735410Y-3522980D02*
G75*
G03*
X7735410Y-3522980I-73500J0D01*
G01*
X7964330Y-11441590D02*
X8111330Y-11588590D01*
X8111330Y-11441590D02*
X7964330Y-11588590D01*
X8111330Y-11515090D02*
G75*
G03*
X8111330Y-11515090I-73500J0D01*
G01*
X8093870Y-5833270D02*
X8240870Y-5980270D01*
X8240870Y-5833270D02*
X8093870Y-5980270D01*
X8240870Y-5906770D02*
G75*
G03*
X8240870Y-5906770I-73500J0D01*
G01*
X8223410Y-3195480D02*
X8370410Y-3342480D01*
X8370410Y-3195480D02*
X8223410Y-3342480D01*
X8370410Y-3268980D02*
G75*
G03*
X8370410Y-3268980I-73500J0D01*
G01*
X8728870Y-5579270D02*
X8875870Y-5726270D01*
X8875870Y-5579270D02*
X8728870Y-5726270D01*
X8875870Y-5652770D02*
G75*
G03*
X8875870Y-5652770I-73500J0D01*
G01*
X8835725Y-7846216D02*
X8982725Y-7993216D01*
X8982725Y-7846216D02*
X8835725Y-7993216D01*
X8982725Y-7919716D02*
G75*
G03*
X8982725Y-7919716I-73500J0D01*
G01*
X8905575Y-9809636D02*
X9052575Y-9956636D01*
X9052575Y-9809636D02*
X8905575Y-9956636D01*
X9052575Y-9883136D02*
G75*
G03*
X9052575Y-9883136I-73500J0D01*
G01*
X9438975Y-11869576D02*
X9585975Y-12016576D01*
X9585975Y-11869576D02*
X9438975Y-12016576D01*
X9585975Y-11943076D02*
G75*
G03*
X9585975Y-11943076I-73500J0D01*
G01*
X9509659Y-7729791D02*
X9656659Y-7876791D01*
X9656659Y-7729791D02*
X9509659Y-7876791D01*
X9656659Y-7803291D02*
G75*
G03*
X9656659Y-7803291I-73500J0D01*
G01*
X9510095Y-13831726D02*
X9657095Y-13978726D01*
X9657095Y-13831726D02*
X9510095Y-13978726D01*
X9657095Y-13905226D02*
G75*
G03*
X9657095Y-13905226I-73500J0D01*
G01*
X9579509Y-9693211D02*
X9726509Y-9840211D01*
X9726509Y-9693211D02*
X9579509Y-9840211D01*
X9726509Y-9766711D02*
G75*
G03*
X9726509Y-9766711I-73500J0D01*
G01*
X9729805Y-3653946D02*
X9876805Y-3800946D01*
X9876805Y-3653946D02*
X9729805Y-3800946D01*
X9876805Y-3727446D02*
G75*
G03*
X9876805Y-3727446I-73500J0D01*
G01*
X10112909Y-11753151D02*
X10259909Y-11900151D01*
X10259909Y-11753151D02*
X10112909Y-11900151D01*
X10259909Y-11826651D02*
G75*
G03*
X10259909Y-11826651I-73500J0D01*
G01*
X10164145Y-6179976D02*
X10311145Y-6326976D01*
X10311145Y-6179976D02*
X10164145Y-6326976D01*
X10311145Y-6253476D02*
G75*
G03*
X10311145Y-6253476I-73500J0D01*
G01*
X10184029Y-13715301D02*
X10331029Y-13862301D01*
X10331029Y-13715301D02*
X10184029Y-13862301D01*
X10331029Y-13788801D02*
G75*
G03*
X10331029Y-13788801I-73500J0D01*
G01*
X10403739Y-3537521D02*
X10550739Y-3684521D01*
X10550739Y-3537521D02*
X10403739Y-3684521D01*
X10550739Y-3611021D02*
G75*
G03*
X10550739Y-3611021I-73500J0D01*
G01*
X10698815Y-8242456D02*
X10845815Y-8389456D01*
X10845815Y-8242456D02*
X10698815Y-8389456D01*
X10845815Y-8315956D02*
G75*
G03*
X10845815Y-8315956I-73500J0D01*
G01*
X10768665Y-10205876D02*
X10915665Y-10352876D01*
X10915665Y-10205876D02*
X10768665Y-10352876D01*
X10915665Y-10279376D02*
G75*
G03*
X10915665Y-10279376I-73500J0D01*
G01*
X10838079Y-6063551D02*
X10985079Y-6210551D01*
X10985079Y-6063551D02*
X10838079Y-6210551D01*
X10985079Y-6137051D02*
G75*
G03*
X10985079Y-6137051I-73500J0D01*
G01*
X11300795Y-12264546D02*
X11447795Y-12411546D01*
X11447795Y-12264546D02*
X11300795Y-12411546D01*
X11447795Y-12338046D02*
G75*
G03*
X11447795Y-12338046I-73500J0D01*
G01*
X11372749Y-8126031D02*
X11519749Y-8273031D01*
X11519749Y-8126031D02*
X11372749Y-8273031D01*
X11519749Y-8199531D02*
G75*
G03*
X11519749Y-8199531I-73500J0D01*
G01*
X11442599Y-10089451D02*
X11589599Y-10236451D01*
X11589599Y-10089451D02*
X11442599Y-10236451D01*
X11589599Y-10162951D02*
G75*
G03*
X11589599Y-10162951I-73500J0D01*
G01*
X11591625Y-4048916D02*
X11738625Y-4195916D01*
X11738625Y-4048916D02*
X11591625Y-4195916D01*
X11738625Y-4122416D02*
G75*
G03*
X11738625Y-4122416I-73500J0D01*
G01*
X11974729Y-12148121D02*
X12121729Y-12295121D01*
X12121729Y-12148121D02*
X11974729Y-12295121D01*
X12121729Y-12221621D02*
G75*
G03*
X12121729Y-12221621I-73500J0D01*
G01*
X12027235Y-6577486D02*
X12174235Y-6724486D01*
X12174235Y-6577486D02*
X12027235Y-6724486D01*
X12174235Y-6650986D02*
G75*
G03*
X12174235Y-6650986I-73500J0D01*
G01*
X12265559Y-3932491D02*
X12412559Y-4079491D01*
X12412559Y-3932491D02*
X12265559Y-4079491D01*
X12412559Y-4005991D02*
G75*
G03*
X12412559Y-4005991I-73500J0D01*
G01*
X12560635Y-8639966D02*
X12707635Y-8786966D01*
X12707635Y-8639966D02*
X12560635Y-8786966D01*
X12707635Y-8713466D02*
G75*
G03*
X12707635Y-8713466I-73500J0D01*
G01*
X12627945Y-10598306D02*
X12774945Y-10745306D01*
X12774945Y-10598306D02*
X12627945Y-10745306D01*
X12774945Y-10671806D02*
G75*
G03*
X12774945Y-10671806I-73500J0D01*
G01*
X12701169Y-6461061D02*
X12848169Y-6608061D01*
X12848169Y-6461061D02*
X12701169Y-6608061D01*
X12848169Y-6534561D02*
G75*
G03*
X12848169Y-6534561I-73500J0D01*
G01*
X12770185Y-14525146D02*
X12917185Y-14672146D01*
X12917185Y-14525146D02*
X12770185Y-14672146D01*
X12917185Y-14598646D02*
G75*
G03*
X12917185Y-14598646I-73500J0D01*
G01*
X13165155Y-12660786D02*
X13312155Y-12807786D01*
X13312155Y-12660786D02*
X13165155Y-12807786D01*
X13312155Y-12734286D02*
G75*
G03*
X13312155Y-12734286I-73500J0D01*
G01*
X13234569Y-8523541D02*
X13381569Y-8670541D01*
X13381569Y-8523541D02*
X13234569Y-8670541D01*
X13381569Y-8597041D02*
G75*
G03*
X13381569Y-8597041I-73500J0D01*
G01*
X13301879Y-10481881D02*
X13448879Y-10628881D01*
X13448879Y-10481881D02*
X13301879Y-10628881D01*
X13448879Y-10555381D02*
G75*
G03*
X13448879Y-10555381I-73500J0D01*
G01*
X13444119Y-14408721D02*
X13591119Y-14555721D01*
X13591119Y-14408721D02*
X13444119Y-14555721D01*
X13591119Y-14482221D02*
G75*
G03*
X13591119Y-14482221I-73500J0D01*
G01*
X13839089Y-12544361D02*
X13986089Y-12691361D01*
X13986089Y-12544361D02*
X13839089Y-12691361D01*
X13986089Y-12617861D02*
G75*
G03*
X13986089Y-12617861I-73500J0D01*
G01*
X13891595Y-6973726D02*
X14038595Y-7120726D01*
X14038595Y-6973726D02*
X13891595Y-7120726D01*
X14038595Y-7047226D02*
G75*
G03*
X14038595Y-7047226I-73500J0D01*
G01*
X13918265Y-4545486D02*
X14065265Y-4692486D01*
X14065265Y-4545486D02*
X13918265Y-4692486D01*
X14065265Y-4618986D02*
G75*
G03*
X14065265Y-4618986I-73500J0D01*
G01*
X14424995Y-9031126D02*
X14571995Y-9178126D01*
X14571995Y-9031126D02*
X14424995Y-9178126D01*
X14571995Y-9104626D02*
G75*
G03*
X14571995Y-9104626I-73500J0D01*
G01*
X14492305Y-10994546D02*
X14639305Y-11141546D01*
X14639305Y-10994546D02*
X14492305Y-11141546D01*
X14639305Y-11068046D02*
G75*
G03*
X14639305Y-11068046I-73500J0D01*
G01*
X14565529Y-6857301D02*
X14712529Y-7004301D01*
X14712529Y-6857301D02*
X14565529Y-7004301D01*
X14712529Y-6930801D02*
G75*
G03*
X14712529Y-6930801I-73500J0D01*
G01*
X14592199Y-4429061D02*
X14739199Y-4576061D01*
X14739199Y-4429061D02*
X14592199Y-4576061D01*
X14739199Y-4502561D02*
G75*
G03*
X14739199Y-4502561I-73500J0D01*
G01*
X15028245Y-13055756D02*
X15175245Y-13202756D01*
X15175245Y-13055756D02*
X15028245Y-13202756D01*
X15175245Y-13129256D02*
G75*
G03*
X15175245Y-13129256I-73500J0D01*
G01*
X15098929Y-8914701D02*
X15245929Y-9061701D01*
X15245929Y-8914701D02*
X15098929Y-9061701D01*
X15245929Y-8988201D02*
G75*
G03*
X15245929Y-8988201I-73500J0D01*
G01*
X15166239Y-10878121D02*
X15313239Y-11025121D01*
X15313239Y-10878121D02*
X15166239Y-11025121D01*
X15313239Y-10951621D02*
G75*
G03*
X15313239Y-10951621I-73500J0D01*
G01*
X15565455Y-15118236D02*
X15712455Y-15265236D01*
X15712455Y-15118236D02*
X15565455Y-15265236D01*
X15712455Y-15191736D02*
G75*
G03*
X15712455Y-15191736I-73500J0D01*
G01*
X15702179Y-12939331D02*
X15849179Y-13086331D01*
X15849179Y-12939331D02*
X15702179Y-13086331D01*
X15849179Y-13012831D02*
G75*
G03*
X15849179Y-13012831I-73500J0D01*
G01*
X15755955Y-7367426D02*
X15902955Y-7514426D01*
X15902955Y-7367426D02*
X15755955Y-7514426D01*
X15902955Y-7440926D02*
G75*
G03*
X15902955Y-7440926I-73500J0D01*
G01*
X15780085Y-4941726D02*
X15927085Y-5088726D01*
X15927085Y-4941726D02*
X15780085Y-5088726D01*
X15927085Y-5015226D02*
G75*
G03*
X15927085Y-5015226I-73500J0D01*
G01*
X16239389Y-15001811D02*
X16386389Y-15148811D01*
X16386389Y-15001811D02*
X16239389Y-15148811D01*
X16386389Y-15075311D02*
G75*
G03*
X16386389Y-15075311I-73500J0D01*
G01*
X16429889Y-7251001D02*
X16576889Y-7398001D01*
X16576889Y-7251001D02*
X16429889Y-7398001D01*
X16576889Y-7324501D02*
G75*
G03*
X16576889Y-7324501I-73500J0D01*
G01*
X16454019Y-4825301D02*
X16601019Y-4972301D01*
X16601019Y-4825301D02*
X16454019Y-4972301D01*
X16601019Y-4898801D02*
G75*
G03*
X16601019Y-4898801I-73500J0D01*
G01*
X17927446Y-9587065D02*
X18074446Y-9734065D01*
X18074446Y-9587065D02*
X17927446Y-9734065D01*
X18074446Y-9660565D02*
G75*
G03*
X18074446Y-9660565I-73500J0D01*
G01*
X18432906Y-5098885D02*
X18579906Y-5245885D01*
X18579906Y-5098885D02*
X18432906Y-5245885D01*
X18579906Y-5172385D02*
G75*
G03*
X18579906Y-5172385I-73500J0D01*
G01*
X18462116Y-7525855D02*
X18609116Y-7672855D01*
X18609116Y-7525855D02*
X18462116Y-7672855D01*
X18609116Y-7599355D02*
G75*
G03*
X18609116Y-7599355I-73500J0D01*
G01*
X18495760Y-9206591D02*
X18642760Y-9353591D01*
X18642760Y-9206591D02*
X18495760Y-9353591D01*
X18642760Y-9280091D02*
G75*
G03*
X18642760Y-9280091I-73500J0D01*
G01*
X18788506Y-11351095D02*
X18935506Y-11498095D01*
X18935506Y-11351095D02*
X18788506Y-11498095D01*
X18935506Y-11424595D02*
G75*
G03*
X18935506Y-11424595I-73500J0D01*
G01*
X19001220Y-4718411D02*
X19148220Y-4865411D01*
X19148220Y-4718411D02*
X19001220Y-4865411D01*
X19148220Y-4791911D02*
G75*
G03*
X19148220Y-4791911I-73500J0D01*
G01*
X19030430Y-7145381D02*
X19177430Y-7292381D01*
X19177430Y-7145381D02*
X19030430Y-7292381D01*
X19177430Y-7218881D02*
G75*
G03*
X19177430Y-7218881I-73500J0D01*
G01*
X19356820Y-10970621D02*
X19503820Y-11117621D01*
X19503820Y-10970621D02*
X19356820Y-11117621D01*
X19503820Y-11044121D02*
G75*
G03*
X19503820Y-11044121I-73500J0D01*
G01*
X19649566Y-13116395D02*
X19796566Y-13263395D01*
X19796566Y-13116395D02*
X19649566Y-13263395D01*
X19796566Y-13189895D02*
G75*
G03*
X19796566Y-13189895I-73500J0D01*
G01*
X19789266Y-9189555D02*
X19936266Y-9336555D01*
X19936266Y-9189555D02*
X19789266Y-9336555D01*
X19936266Y-9263055D02*
G75*
G03*
X19936266Y-9263055I-73500J0D01*
G01*
X20217880Y-12735921D02*
X20364880Y-12882921D01*
X20364880Y-12735921D02*
X20217880Y-12882921D01*
X20364880Y-12809421D02*
G75*
G03*
X20364880Y-12809421I-73500J0D01*
G01*
X20295996Y-4702645D02*
X20442996Y-4849645D01*
X20442996Y-4702645D02*
X20295996Y-4849645D01*
X20442996Y-4776145D02*
G75*
G03*
X20442996Y-4776145I-73500J0D01*
G01*
X20326476Y-7130885D02*
X20473476Y-7277885D01*
X20473476Y-7130885D02*
X20326476Y-7277885D01*
X20473476Y-7204385D02*
G75*
G03*
X20473476Y-7204385I-73500J0D01*
G01*
X20357580Y-8809081D02*
X20504580Y-8956081D01*
X20504580Y-8809081D02*
X20357580Y-8956081D01*
X20504580Y-8882581D02*
G75*
G03*
X20504580Y-8882581I-73500J0D01*
G01*
X20651596Y-10953585D02*
X20798596Y-11100585D01*
X20798596Y-10953585D02*
X20651596Y-11100585D01*
X20798596Y-11027085D02*
G75*
G03*
X20798596Y-11027085I-73500J0D01*
G01*
X20745576Y-14828355D02*
X20892576Y-14975355D01*
X20892576Y-14828355D02*
X20745576Y-14975355D01*
X20892576Y-14901855D02*
G75*
G03*
X20892576Y-14901855I-73500J0D01*
G01*
X20864310Y-4322171D02*
X21011310Y-4469171D01*
X21011310Y-4322171D02*
X20864310Y-4469171D01*
X21011310Y-4395671D02*
G75*
G03*
X21011310Y-4395671I-73500J0D01*
G01*
X20894790Y-6750411D02*
X21041790Y-6897411D01*
X21041790Y-6750411D02*
X20894790Y-6897411D01*
X21041790Y-6823911D02*
G75*
G03*
X21041790Y-6823911I-73500J0D01*
G01*
X21219910Y-10573111D02*
X21366910Y-10720111D01*
X21366910Y-10573111D02*
X21219910Y-10720111D01*
X21366910Y-10646611D02*
G75*
G03*
X21366910Y-10646611I-73500J0D01*
G01*
X21313890Y-14447881D02*
X21460890Y-14594881D01*
X21460890Y-14447881D02*
X21313890Y-14594881D01*
X21460890Y-14521381D02*
G75*
G03*
X21460890Y-14521381I-73500J0D01*
G01*
X21513926Y-12718885D02*
X21660926Y-12865885D01*
X21660926Y-12718885D02*
X21513926Y-12865885D01*
X21660926Y-12792385D02*
G75*
G03*
X21660926Y-12792385I-73500J0D01*
G01*
X21651086Y-8794585D02*
X21798086Y-8941585D01*
X21798086Y-8794585D02*
X21651086Y-8941585D01*
X21798086Y-8868085D02*
G75*
G03*
X21798086Y-8868085I-73500J0D01*
G01*
X22082240Y-12338411D02*
X22229240Y-12485411D01*
X22229240Y-12338411D02*
X22082240Y-12485411D01*
X22229240Y-12411911D02*
G75*
G03*
X22229240Y-12411911I-73500J0D01*
G01*
X22187026Y-6733375D02*
X22334026Y-6880375D01*
X22334026Y-6733375D02*
X22187026Y-6880375D01*
X22334026Y-6806875D02*
G75*
G03*
X22334026Y-6806875I-73500J0D01*
G01*
X22219400Y-8414111D02*
X22366400Y-8561111D01*
X22366400Y-8414111D02*
X22219400Y-8561111D01*
X22366400Y-8487611D02*
G75*
G03*
X22366400Y-8487611I-73500J0D01*
G01*
X22514686Y-10556075D02*
X22661686Y-10703075D01*
X22661686Y-10556075D02*
X22514686Y-10703075D01*
X22661686Y-10629575D02*
G75*
G03*
X22661686Y-10629575I-73500J0D01*
G01*
X22623906Y-4207345D02*
X22770906Y-4354345D01*
X22770906Y-4207345D02*
X22623906Y-4354345D01*
X22770906Y-4280845D02*
G75*
G03*
X22770906Y-4280845I-73500J0D01*
G01*
X22755340Y-6352901D02*
X22902340Y-6499901D01*
X22902340Y-6352901D02*
X22755340Y-6499901D01*
X22902340Y-6426401D02*
G75*
G03*
X22902340Y-6426401I-73500J0D01*
G01*
X23083000Y-10175601D02*
X23230000Y-10322601D01*
X23230000Y-10175601D02*
X23083000Y-10322601D01*
X23230000Y-10249101D02*
G75*
G03*
X23230000Y-10249101I-73500J0D01*
G01*
X23192220Y-3826871D02*
X23339220Y-3973871D01*
X23339220Y-3826871D02*
X23192220Y-3973871D01*
X23339220Y-3900371D02*
G75*
G03*
X23339220Y-3900371I-73500J0D01*
G01*
X23375746Y-12322645D02*
X23522746Y-12469645D01*
X23522746Y-12322645D02*
X23375746Y-12469645D01*
X23522746Y-12396145D02*
G75*
G03*
X23522746Y-12396145I-73500J0D01*
G01*
X23514176Y-8398345D02*
X23661176Y-8545345D01*
X23661176Y-8398345D02*
X23514176Y-8545345D01*
X23661176Y-8471845D02*
G75*
G03*
X23661176Y-8471845I-73500J0D01*
G01*
X23944060Y-11942171D02*
X24091060Y-12089171D01*
X24091060Y-11942171D02*
X23944060Y-12089171D01*
X24091060Y-12015671D02*
G75*
G03*
X24091060Y-12015671I-73500J0D01*
G01*
X24052656Y-6339675D02*
X24199656Y-6486675D01*
X24199656Y-6339675D02*
X24052656Y-6486675D01*
X24199656Y-6413175D02*
G75*
G03*
X24199656Y-6413175I-73500J0D01*
G01*
X24082490Y-8017871D02*
X24229490Y-8164871D01*
X24229490Y-8017871D02*
X24082490Y-8164871D01*
X24229490Y-8091371D02*
G75*
G03*
X24229490Y-8091371I-73500J0D01*
G01*
X24375236Y-10162375D02*
X24522236Y-10309375D01*
X24522236Y-10162375D02*
X24375236Y-10309375D01*
X24522236Y-10235875D02*
G75*
G03*
X24522236Y-10235875I-73500J0D01*
G01*
X24486996Y-3811105D02*
X24633996Y-3958105D01*
X24633996Y-3811105D02*
X24486996Y-3958105D01*
X24633996Y-3884605D02*
G75*
G03*
X24633996Y-3884605I-73500J0D01*
G01*
X24620970Y-5959201D02*
X24767970Y-6106201D01*
X24767970Y-5959201D02*
X24620970Y-6106201D01*
X24767970Y-6032701D02*
G75*
G03*
X24767970Y-6032701I-73500J0D01*
G01*
X24704166Y-13987615D02*
X24851166Y-14134615D01*
X24851166Y-13987615D02*
X24704166Y-14134615D01*
X24851166Y-14061115D02*
G75*
G03*
X24851166Y-14061115I-73500J0D01*
G01*
X24943550Y-9781901D02*
X25090550Y-9928901D01*
X25090550Y-9781901D02*
X24943550Y-9928901D01*
X25090550Y-9855401D02*
G75*
G03*
X25090550Y-9855401I-73500J0D01*
G01*
X25055310Y-3430631D02*
X25202310Y-3577631D01*
X25202310Y-3430631D02*
X25055310Y-3577631D01*
X25202310Y-3504131D02*
G75*
G03*
X25202310Y-3504131I-73500J0D01*
G01*
X25240106Y-11926405D02*
X25387106Y-12073405D01*
X25387106Y-11926405D02*
X25240106Y-12073405D01*
X25387106Y-11999905D02*
G75*
G03*
X25387106Y-11999905I-73500J0D01*
G01*
X25272480Y-13607141D02*
X25419480Y-13754141D01*
X25419480Y-13607141D02*
X25272480Y-13754141D01*
X25419480Y-13680641D02*
G75*
G03*
X25419480Y-13680641I-73500J0D01*
G01*
X25377266Y-8003375D02*
X25524266Y-8150375D01*
X25524266Y-8003375D02*
X25377266Y-8150375D01*
X25524266Y-8076875D02*
G75*
G03*
X25524266Y-8076875I-73500J0D01*
G01*
X25808420Y-11545931D02*
X25955420Y-11692931D01*
X25955420Y-11545931D02*
X25808420Y-11692931D01*
X25955420Y-11619431D02*
G75*
G03*
X25955420Y-11619431I-73500J0D01*
G01*
X25945580Y-7622901D02*
X26092580Y-7769901D01*
X26092580Y-7622901D02*
X25945580Y-7769901D01*
X26092580Y-7696401D02*
G75*
G03*
X26092580Y-7696401I-73500J0D01*
G01*
X26102470Y-5832000D02*
X26249470Y-5979000D01*
X26249470Y-5832000D02*
X26102470Y-5979000D01*
X26249470Y-5905500D02*
G75*
G03*
X26249470Y-5905500I-73500J0D01*
G01*
X26469500Y-9793130D02*
X26616500Y-9940130D01*
X26616500Y-9793130D02*
X26469500Y-9940130D01*
X26616500Y-9866630D02*
G75*
G03*
X26616500Y-9866630I-73500J0D01*
G01*
X26607930Y-3452020D02*
X26754930Y-3599020D01*
X26754930Y-3452020D02*
X26607930Y-3599020D01*
X26754930Y-3525520D02*
G75*
G03*
X26754930Y-3525520I-73500J0D01*
G01*
X26737470Y-5578000D02*
X26884470Y-5725000D01*
X26884470Y-5578000D02*
X26737470Y-5725000D01*
X26884470Y-5651500D02*
G75*
G03*
X26884470Y-5651500I-73500J0D01*
G01*
X27104500Y-9539130D02*
X27251500Y-9686130D01*
X27251500Y-9539130D02*
X27104500Y-9686130D01*
X27251500Y-9612630D02*
G75*
G03*
X27251500Y-9612630I-73500J0D01*
G01*
X27242930Y-3198020D02*
X27389930Y-3345020D01*
X27389930Y-3198020D02*
X27242930Y-3345020D01*
X27389930Y-3271520D02*
G75*
G03*
X27389930Y-3271520I-73500J0D01*
G01*
X27422000Y-11695590D02*
X27569000Y-11842590D01*
X27569000Y-11695590D02*
X27422000Y-11842590D01*
X27569000Y-11769090D02*
G75*
G03*
X27569000Y-11769090I-73500J0D01*
G01*
X27471530Y-7885590D02*
X27618530Y-8032590D01*
X27618530Y-7885590D02*
X27471530Y-8032590D01*
X27618530Y-7959090D02*
G75*
G03*
X27618530Y-7959090I-73500J0D01*
G01*
X28006200Y-5981860D02*
X28153200Y-6128860D01*
X28153200Y-5981860D02*
X28006200Y-6128860D01*
X28153200Y-6055360D02*
G75*
G03*
X28153200Y-6055360I-73500J0D01*
G01*
X28057000Y-11441590D02*
X28204000Y-11588590D01*
X28204000Y-11441590D02*
X28057000Y-11588590D01*
X28204000Y-11515090D02*
G75*
G03*
X28204000Y-11515090I-73500J0D01*
G01*
X28106530Y-7631590D02*
X28253530Y-7778590D01*
X28253530Y-7631590D02*
X28106530Y-7778590D01*
X28253530Y-7705090D02*
G75*
G03*
X28253530Y-7705090I-73500J0D01*
G01*
X28374500Y-9793130D02*
X28521500Y-9940130D01*
X28521500Y-9793130D02*
X28374500Y-9940130D01*
X28521500Y-9866630D02*
G75*
G03*
X28521500Y-9866630I-73500J0D01*
G01*
X28514200Y-3452020D02*
X28661200Y-3599020D01*
X28661200Y-3452020D02*
X28514200Y-3599020D01*
X28661200Y-3525520D02*
G75*
G03*
X28661200Y-3525520I-73500J0D01*
G01*
X28641200Y-5727860D02*
X28788200Y-5874860D01*
X28788200Y-5727860D02*
X28641200Y-5874860D01*
X28788200Y-5801360D02*
G75*
G03*
X28788200Y-5801360I-73500J0D01*
G01*
X29009500Y-9539130D02*
X29156500Y-9686130D01*
X29156500Y-9539130D02*
X29009500Y-9686130D01*
X29156500Y-9612630D02*
G75*
G03*
X29156500Y-9612630I-73500J0D01*
G01*
X29149200Y-3198020D02*
X29296200Y-3345020D01*
X29296200Y-3198020D02*
X29149200Y-3345020D01*
X29296200Y-3271520D02*
G75*
G03*
X29296200Y-3271520I-73500J0D01*
G01*
X29375260Y-7885590D02*
X29522260Y-8032590D01*
X29522260Y-7885590D02*
X29375260Y-8032590D01*
X29522260Y-7959090D02*
G75*
G03*
X29522260Y-7959090I-73500J0D01*
G01*
X29912470Y-5981860D02*
X30059470Y-6128860D01*
X30059470Y-5981860D02*
X29912470Y-6128860D01*
X30059470Y-6055360D02*
G75*
G03*
X30059470Y-6055360I-73500J0D01*
G01*
X30010260Y-7631590D02*
X30157260Y-7778590D01*
X30157260Y-7631590D02*
X30010260Y-7778590D01*
X30157260Y-7705090D02*
G75*
G03*
X30157260Y-7705090I-73500J0D01*
G01*
X30043280Y-11696860D02*
X30190280Y-11843860D01*
X30190280Y-11696860D02*
X30043280Y-11843860D01*
X30190280Y-11770360D02*
G75*
G03*
X30190280Y-11770360I-73500J0D01*
G01*
X30547470Y-5727860D02*
X30694470Y-5874860D01*
X30694470Y-5727860D02*
X30547470Y-5874860D01*
X30694470Y-5801360D02*
G75*
G03*
X30694470Y-5801360I-73500J0D01*
G01*
X30678280Y-11442860D02*
X30825280Y-11589860D01*
X30825280Y-11442860D02*
X30678280Y-11589860D01*
X30825280Y-11516360D02*
G75*
G03*
X30825280Y-11516360I-73500J0D01*
G01*
X31230730Y-14076840D02*
X31377730Y-14223840D01*
X31377730Y-14076840D02*
X31230730Y-14223840D01*
X31377730Y-14150340D02*
G75*
G03*
X31377730Y-14150340I-73500J0D01*
G01*
X31469490Y-9790590D02*
X31616490Y-9937590D01*
X31616490Y-9790590D02*
X31469490Y-9937590D01*
X31616490Y-9864090D02*
G75*
G03*
X31616490Y-9864090I-73500J0D01*
G01*
X31756510Y-7886860D02*
X31903510Y-8033860D01*
X31903510Y-7886860D02*
X31756510Y-8033860D01*
X31903510Y-7960360D02*
G75*
G03*
X31903510Y-7960360I-73500J0D01*
G01*
X31816200Y-5980590D02*
X31963200Y-6127590D01*
X31963200Y-5980590D02*
X31816200Y-6127590D01*
X31963200Y-6054090D02*
G75*
G03*
X31963200Y-6054090I-73500J0D01*
G01*
X31865730Y-13822840D02*
X32012730Y-13969840D01*
X32012730Y-13822840D02*
X31865730Y-13969840D01*
X32012730Y-13896340D02*
G75*
G03*
X32012730Y-13896340I-73500J0D01*
G01*
X32104490Y-9536590D02*
X32251490Y-9683590D01*
X32251490Y-9536590D02*
X32104490Y-9683590D01*
X32251490Y-9610090D02*
G75*
G03*
X32251490Y-9610090I-73500J0D01*
G01*
X32391510Y-7632860D02*
X32538510Y-7779860D01*
X32538510Y-7632860D02*
X32391510Y-7779860D01*
X32538510Y-7706360D02*
G75*
G03*
X32538510Y-7706360I-73500J0D01*
G01*
X32451200Y-5726590D02*
X32598200Y-5873590D01*
X32598200Y-5726590D02*
X32451200Y-5873590D01*
X32598200Y-5800090D02*
G75*
G03*
X32598200Y-5800090I-73500J0D01*
G01*
X33137000Y-12171840D02*
X33284000Y-12318840D01*
X33284000Y-12171840D02*
X33137000Y-12318840D01*
X33284000Y-12245340D02*
G75*
G03*
X33284000Y-12245340I-73500J0D01*
G01*
X33137000Y-14076840D02*
X33284000Y-14223840D01*
X33284000Y-14076840D02*
X33137000Y-14223840D01*
X33284000Y-14150340D02*
G75*
G03*
X33284000Y-14150340I-73500J0D01*
G01*
X33772000Y-11917840D02*
X33919000Y-12064840D01*
X33919000Y-11917840D02*
X33772000Y-12064840D01*
X33919000Y-11991340D02*
G75*
G03*
X33919000Y-11991340I-73500J0D01*
G01*
X33772000Y-13822840D02*
X33919000Y-13969840D01*
X33919000Y-13822840D02*
X33772000Y-13969840D01*
X33919000Y-13896340D02*
G75*
G03*
X33919000Y-13896340I-73500J0D01*
G01*
X33777080Y-3600610D02*
X33924080Y-3747610D01*
X33924080Y-3600610D02*
X33777080Y-3747610D01*
X33924080Y-3674110D02*
G75*
G03*
X33924080Y-3674110I-73500J0D01*
G01*
X34198720Y-5505610D02*
X34345720Y-5652610D01*
X34345720Y-5505610D02*
X34198720Y-5652610D01*
X34345720Y-5579110D02*
G75*
G03*
X34345720Y-5579110I-73500J0D01*
G01*
X34412080Y-3346610D02*
X34559080Y-3493610D01*
X34559080Y-3346610D02*
X34412080Y-3493610D01*
X34559080Y-3420110D02*
G75*
G03*
X34559080Y-3420110I-73500J0D01*
G01*
X34614010Y-7409340D02*
X34761010Y-7556340D01*
X34761010Y-7409340D02*
X34614010Y-7556340D01*
X34761010Y-7482840D02*
G75*
G03*
X34761010Y-7482840I-73500J0D01*
G01*
X34833720Y-5251610D02*
X34980720Y-5398610D01*
X34980720Y-5251610D02*
X34833720Y-5398610D01*
X34980720Y-5325110D02*
G75*
G03*
X34980720Y-5325110I-73500J0D01*
G01*
X35040730Y-9314340D02*
X35187730Y-9461340D01*
X35187730Y-9314340D02*
X35040730Y-9461340D01*
X35187730Y-9387840D02*
G75*
G03*
X35187730Y-9387840I-73500J0D01*
G01*
X35042000Y-14076840D02*
X35189000Y-14223840D01*
X35189000Y-14076840D02*
X35042000Y-14223840D01*
X35189000Y-14150340D02*
G75*
G03*
X35189000Y-14150340I-73500J0D01*
G01*
X35249010Y-7155340D02*
X35396010Y-7302340D01*
X35396010Y-7155340D02*
X35249010Y-7302340D01*
X35396010Y-7228840D02*
G75*
G03*
X35396010Y-7228840I-73500J0D01*
G01*
X35675730Y-9060340D02*
X35822730Y-9207340D01*
X35822730Y-9060340D02*
X35675730Y-9207340D01*
X35822730Y-9133840D02*
G75*
G03*
X35822730Y-9133840I-73500J0D01*
G01*
X35677000Y-13822840D02*
X35824000Y-13969840D01*
X35824000Y-13822840D02*
X35677000Y-13969840D01*
X35824000Y-13896340D02*
G75*
G03*
X35824000Y-13896340I-73500J0D01*
G01*
X31536000Y-3298000D02*
X31686000Y-3448000D01*
X31686000Y-3298000D02*
X31536000Y-3448000D01*
X31611000Y-3298000D02*
X31611000Y-3448000D01*
X31536000Y-3373000D02*
X31686000Y-3373000D01*
X31546000Y-3438000D02*
X31676000Y-3438000D01*
X31546000Y-3308000D02*
X31676000Y-3308000D01*
X31676000Y-3438000D02*
G75*
G03*
X31676000Y-3308000I0J65000D01*
G01*
X31546000Y-3308000D02*
G75*
G03*
X31546000Y-3438000I0J-65000D01*
G01*
X31536000Y-4418000D02*
X31686000Y-4568000D01*
X31686000Y-4418000D02*
X31536000Y-4568000D01*
X31611000Y-4418000D02*
X31611000Y-4568000D01*
X31536000Y-4493000D02*
X31686000Y-4493000D01*
X31546000Y-4558000D02*
X31676000Y-4558000D01*
X31546000Y-4428000D02*
X31676000Y-4428000D01*
X31676000Y-4558000D02*
G75*
G03*
X31676000Y-4428000I0J65000D01*
G01*
X31546000Y-4428000D02*
G75*
G03*
X31546000Y-4558000I0J-65000D01*
G01*
X5122400Y-13847300D02*
X5342400Y-14067300D01*
X5342400Y-13847300D02*
X5122400Y-14067300D01*
X5310183Y-14035082D02*
X5310183Y-13879517D01*
X5154618Y-13879517D01*
X5154618Y-14035082D01*
X5310183Y-14035082D01*
X5579600Y-7154400D02*
X5799600Y-7374400D01*
X5799600Y-7154400D02*
X5579600Y-7374400D01*
X5767382Y-7342182D02*
X5767382Y-7186617D01*
X5611817Y-7186617D01*
X5611817Y-7342182D01*
X5767382Y-7342182D01*
X11066000Y-14393400D02*
X11286000Y-14613400D01*
X11286000Y-14393400D02*
X11066000Y-14613400D01*
X11253782Y-14581182D02*
X11253782Y-14425617D01*
X11098218Y-14425617D01*
X11098218Y-14581182D01*
X11253782Y-14581182D01*
X12072722Y-2683251D02*
X12292722Y-2903251D01*
X12292722Y-2683251D02*
X12072722Y-2903251D01*
X12260504Y-2871033D02*
X12260504Y-2715468D01*
X12104939Y-2715468D01*
X12104939Y-2871033D01*
X12260504Y-2871033D01*
X22809278Y-2683251D02*
X23029278Y-2903251D01*
X23029278Y-2683251D02*
X22809278Y-2903251D01*
X22997061Y-2871033D02*
X22997061Y-2715468D01*
X22841496Y-2715468D01*
X22841496Y-2871033D01*
X22997061Y-2871033D01*
X23956500Y-14342600D02*
X24176500Y-14562600D01*
X24176500Y-14342600D02*
X23956500Y-14562600D01*
X24144282Y-14530382D02*
X24144282Y-14374817D01*
X23988717Y-14374817D01*
X23988717Y-14530382D01*
X24144282Y-14530382D01*
X33595800Y-4766800D02*
X33815800Y-4986800D01*
X33815800Y-4766800D02*
X33595800Y-4986800D01*
X33783583Y-4954583D02*
X33783583Y-4799018D01*
X33628018Y-4799018D01*
X33628018Y-4954583D01*
X33783583Y-4954583D01*
X34434000Y-13339300D02*
X34654000Y-13559300D01*
X34654000Y-13339300D02*
X34434000Y-13559300D01*
X34621783Y-13527082D02*
X34621783Y-13371517D01*
X34466218Y-13371517D01*
X34466218Y-13527082D01*
X34621783Y-13527082D01*
D12*
X2820178Y-17235738D02*
X2820178Y-16935738D01*
X2891607Y-16935738D01*
X2934464Y-16950023D01*
X2963036Y-16978595D01*
X2977321Y-17007166D01*
X2991607Y-17064309D01*
X2991607Y-17107166D01*
X2977321Y-17164309D01*
X2963036Y-17192880D01*
X2934464Y-17221452D01*
X2891607Y-17235738D01*
X2820178Y-17235738D01*
X3120178Y-17235738D02*
X3120178Y-17035738D01*
X3120178Y-17092880D02*
X3134464Y-17064309D01*
X3148750Y-17050023D01*
X3177321Y-17035738D01*
X3205893Y-17035738D01*
X3305893Y-17235738D02*
X3305893Y-17035738D01*
X3305893Y-16935738D02*
X3291607Y-16950023D01*
X3305893Y-16964309D01*
X3320178Y-16950023D01*
X3305893Y-16935738D01*
X3305893Y-16964309D01*
X3491607Y-17235738D02*
X3463036Y-17221452D01*
X3448750Y-17192880D01*
X3448750Y-16935738D01*
X3648750Y-17235738D02*
X3620178Y-17221452D01*
X3605893Y-17192880D01*
X3605893Y-16935738D01*
X3991607Y-17235738D02*
X3991607Y-16935738D01*
X4091607Y-17150023D01*
X4191607Y-16935738D01*
X4191607Y-17235738D01*
X4463036Y-17235738D02*
X4463036Y-17078595D01*
X4448750Y-17050023D01*
X4420178Y-17035738D01*
X4363036Y-17035738D01*
X4334464Y-17050023D01*
X4463036Y-17221452D02*
X4434464Y-17235738D01*
X4363036Y-17235738D01*
X4334464Y-17221452D01*
X4320178Y-17192880D01*
X4320178Y-17164309D01*
X4334464Y-17135738D01*
X4363036Y-17121452D01*
X4434464Y-17121452D01*
X4463036Y-17107166D01*
X4605893Y-17035738D02*
X4605893Y-17335738D01*
X4605893Y-17050023D02*
X4634464Y-17035738D01*
X4691607Y-17035738D01*
X4720178Y-17050023D01*
X4734464Y-17064309D01*
X4748750Y-17092880D01*
X4748750Y-17178595D01*
X4734464Y-17207166D01*
X4720178Y-17221452D01*
X4691607Y-17235738D01*
X4634464Y-17235738D01*
X4605893Y-17221452D01*
X4877321Y-17207166D02*
X4891607Y-17221452D01*
X4877321Y-17235738D01*
X4863036Y-17221452D01*
X4877321Y-17207166D01*
X4877321Y-17235738D01*
X4877321Y-17050023D02*
X4891607Y-17064309D01*
X4877321Y-17078595D01*
X4863036Y-17064309D01*
X4877321Y-17050023D01*
X4877321Y-17078595D01*
X2493750Y-17710023D02*
X2533750Y-17750023D01*
X2533750Y-17710023D02*
X2493750Y-17750023D01*
X2877321Y-17565738D02*
X2905893Y-17565738D01*
X2934464Y-17580023D01*
X2948750Y-17594309D01*
X2963036Y-17622880D01*
X2977321Y-17680023D01*
X2977321Y-17751452D01*
X2963036Y-17808595D01*
X2948750Y-17837166D01*
X2934464Y-17851452D01*
X2905893Y-17865738D01*
X2877321Y-17865738D01*
X2848750Y-17851452D01*
X2834464Y-17837166D01*
X2820178Y-17808595D01*
X2805893Y-17751452D01*
X2805893Y-17680023D01*
X2820178Y-17622880D01*
X2834464Y-17594309D01*
X2848750Y-17580023D01*
X2877321Y-17565738D01*
X3105893Y-17837166D02*
X3120178Y-17851452D01*
X3105893Y-17865738D01*
X3091607Y-17851452D01*
X3105893Y-17837166D01*
X3105893Y-17865738D01*
X3377321Y-17665738D02*
X3377321Y-17865738D01*
X3305893Y-17551452D02*
X3234464Y-17765738D01*
X3420178Y-17765738D01*
X3591607Y-17565738D02*
X3620178Y-17565738D01*
X3648750Y-17580023D01*
X3663036Y-17594309D01*
X3677321Y-17622880D01*
X3691607Y-17680023D01*
X3691607Y-17751452D01*
X3677321Y-17808595D01*
X3663036Y-17837166D01*
X3648750Y-17851452D01*
X3620178Y-17865738D01*
X3591607Y-17865738D01*
X3563036Y-17851452D01*
X3548750Y-17837166D01*
X3534464Y-17808595D01*
X3520178Y-17751452D01*
X3520178Y-17680023D01*
X3534464Y-17622880D01*
X3548750Y-17594309D01*
X3563036Y-17580023D01*
X3591607Y-17565738D01*
X3877321Y-17565738D02*
X3905893Y-17565738D01*
X3934464Y-17580023D01*
X3948750Y-17594309D01*
X3963036Y-17622880D01*
X3977321Y-17680023D01*
X3977321Y-17751452D01*
X3963036Y-17808595D01*
X3948750Y-17837166D01*
X3934464Y-17851452D01*
X3905893Y-17865738D01*
X3877321Y-17865738D01*
X3848750Y-17851452D01*
X3834464Y-17837166D01*
X3820178Y-17808595D01*
X3805893Y-17751452D01*
X3805893Y-17680023D01*
X3820178Y-17622880D01*
X3834464Y-17594309D01*
X3848750Y-17580023D01*
X3877321Y-17565738D01*
X4105893Y-17865738D02*
X4105893Y-17665738D01*
X4105893Y-17694309D02*
X4120178Y-17680023D01*
X4148750Y-17665738D01*
X4191607Y-17665738D01*
X4220178Y-17680023D01*
X4234464Y-17708595D01*
X4234464Y-17865738D01*
X4234464Y-17708595D02*
X4248750Y-17680023D01*
X4277321Y-17665738D01*
X4320178Y-17665738D01*
X4348750Y-17680023D01*
X4363036Y-17708595D01*
X4363036Y-17865738D01*
X4505893Y-17865738D02*
X4505893Y-17665738D01*
X4505893Y-17694309D02*
X4520178Y-17680023D01*
X4548750Y-17665738D01*
X4591607Y-17665738D01*
X4620178Y-17680023D01*
X4634464Y-17708595D01*
X4634464Y-17865738D01*
X4634464Y-17708595D02*
X4648750Y-17680023D01*
X4677321Y-17665738D01*
X4720178Y-17665738D01*
X4748750Y-17680023D01*
X4763036Y-17708595D01*
X4763036Y-17865738D01*
X5348750Y-17551452D02*
X5091607Y-17937166D01*
X5734464Y-17565738D02*
X5763036Y-17565738D01*
X5791607Y-17580023D01*
X5805893Y-17594309D01*
X5820178Y-17622880D01*
X5834464Y-17680023D01*
X5834464Y-17751452D01*
X5820178Y-17808595D01*
X5805893Y-17837166D01*
X5791607Y-17851452D01*
X5763036Y-17865738D01*
X5734464Y-17865738D01*
X5705893Y-17851452D01*
X5691607Y-17837166D01*
X5677321Y-17808595D01*
X5663036Y-17751452D01*
X5663036Y-17680023D01*
X5677321Y-17622880D01*
X5691607Y-17594309D01*
X5705893Y-17580023D01*
X5734464Y-17565738D01*
X5963036Y-17837166D02*
X5977321Y-17851452D01*
X5963036Y-17865738D01*
X5948750Y-17851452D01*
X5963036Y-17837166D01*
X5963036Y-17865738D01*
X6163036Y-17565738D02*
X6191607Y-17565738D01*
X6220178Y-17580023D01*
X6234464Y-17594309D01*
X6248750Y-17622880D01*
X6263036Y-17680023D01*
X6263036Y-17751452D01*
X6248750Y-17808595D01*
X6234464Y-17837166D01*
X6220178Y-17851452D01*
X6191607Y-17865738D01*
X6163036Y-17865738D01*
X6134464Y-17851452D01*
X6120178Y-17837166D01*
X6105893Y-17808595D01*
X6091607Y-17751452D01*
X6091607Y-17680023D01*
X6105893Y-17622880D01*
X6120178Y-17594309D01*
X6134464Y-17580023D01*
X6163036Y-17565738D01*
X6548750Y-17865738D02*
X6377321Y-17865738D01*
X6463036Y-17865738D02*
X6463036Y-17565738D01*
X6434464Y-17608595D01*
X6405893Y-17637166D01*
X6377321Y-17651452D01*
X6820178Y-17565738D02*
X6677321Y-17565738D01*
X6663036Y-17708595D01*
X6677321Y-17694309D01*
X6705893Y-17680023D01*
X6777321Y-17680023D01*
X6805893Y-17694309D01*
X6820178Y-17708595D01*
X6834464Y-17737166D01*
X6834464Y-17808595D01*
X6820178Y-17837166D01*
X6805893Y-17851452D01*
X6777321Y-17865738D01*
X6705893Y-17865738D01*
X6677321Y-17851452D01*
X6663036Y-17837166D01*
X6934464Y-17565738D02*
X7134464Y-17565738D01*
X7005893Y-17865738D01*
X7234464Y-17565738D02*
X7234464Y-17622880D01*
X7348750Y-17565738D02*
X7348750Y-17622880D01*
X7791607Y-17980023D02*
X7777321Y-17965738D01*
X7748750Y-17922880D01*
X7734464Y-17894309D01*
X7720178Y-17851452D01*
X7705893Y-17780023D01*
X7705893Y-17722880D01*
X7720178Y-17651452D01*
X7734464Y-17608595D01*
X7748750Y-17580023D01*
X7777321Y-17537166D01*
X7791607Y-17522880D01*
X7920178Y-17865738D02*
X7977321Y-17865738D01*
X8005893Y-17851452D01*
X8020178Y-17837166D01*
X8048750Y-17794309D01*
X8063036Y-17737166D01*
X8063036Y-17622880D01*
X8048750Y-17594309D01*
X8034464Y-17580023D01*
X8005893Y-17565738D01*
X7948750Y-17565738D01*
X7920178Y-17580023D01*
X7905893Y-17594309D01*
X7891607Y-17622880D01*
X7891607Y-17694309D01*
X7905893Y-17722880D01*
X7920178Y-17737166D01*
X7948750Y-17751452D01*
X8005893Y-17751452D01*
X8034464Y-17737166D01*
X8048750Y-17722880D01*
X8063036Y-17694309D01*
X8334464Y-17565738D02*
X8191607Y-17565738D01*
X8177321Y-17708595D01*
X8191607Y-17694309D01*
X8220178Y-17680023D01*
X8291607Y-17680023D01*
X8320178Y-17694309D01*
X8334464Y-17708595D01*
X8348750Y-17737166D01*
X8348750Y-17808595D01*
X8334464Y-17837166D01*
X8320178Y-17851452D01*
X8291607Y-17865738D01*
X8220178Y-17865738D01*
X8191607Y-17851452D01*
X8177321Y-17837166D01*
X8705893Y-17865738D02*
X8705893Y-17565738D01*
X8834464Y-17865738D02*
X8834464Y-17708595D01*
X8820178Y-17680023D01*
X8791607Y-17665738D01*
X8748750Y-17665738D01*
X8720178Y-17680023D01*
X8705893Y-17694309D01*
X9020178Y-17865738D02*
X8991607Y-17851452D01*
X8977321Y-17837166D01*
X8963036Y-17808595D01*
X8963036Y-17722880D01*
X8977321Y-17694309D01*
X8991607Y-17680023D01*
X9020178Y-17665738D01*
X9063036Y-17665738D01*
X9091607Y-17680023D01*
X9105893Y-17694309D01*
X9120178Y-17722880D01*
X9120178Y-17808595D01*
X9105893Y-17837166D01*
X9091607Y-17851452D01*
X9063036Y-17865738D01*
X9020178Y-17865738D01*
X9291607Y-17865738D02*
X9263036Y-17851452D01*
X9248750Y-17822880D01*
X9248750Y-17565738D01*
X9520178Y-17851452D02*
X9491607Y-17865738D01*
X9434464Y-17865738D01*
X9405893Y-17851452D01*
X9391607Y-17822880D01*
X9391607Y-17708595D01*
X9405893Y-17680023D01*
X9434464Y-17665738D01*
X9491607Y-17665738D01*
X9520178Y-17680023D01*
X9534464Y-17708595D01*
X9534464Y-17737166D01*
X9391607Y-17765738D01*
X9648750Y-17851452D02*
X9677321Y-17865738D01*
X9734464Y-17865738D01*
X9763036Y-17851452D01*
X9777321Y-17822880D01*
X9777321Y-17808595D01*
X9763036Y-17780023D01*
X9734464Y-17765738D01*
X9691607Y-17765738D01*
X9663036Y-17751452D01*
X9648750Y-17722880D01*
X9648750Y-17708595D01*
X9663036Y-17680023D01*
X9691607Y-17665738D01*
X9734464Y-17665738D01*
X9763036Y-17680023D01*
X9877321Y-17980023D02*
X9891607Y-17965738D01*
X9920178Y-17922880D01*
X9934464Y-17894309D01*
X9948750Y-17851452D01*
X9963036Y-17780023D01*
X9963036Y-17722880D01*
X9948750Y-17651452D01*
X9934464Y-17608595D01*
X9920178Y-17580023D01*
X9891607Y-17537166D01*
X9877321Y-17522880D01*
X2533750Y-18126023D02*
G75*
G03*
X2533750Y-18126023I-35000J0D01*
G01*
X2877321Y-17961738D02*
X2905893Y-17961738D01*
X2934464Y-17976023D01*
X2948750Y-17990309D01*
X2963036Y-18018880D01*
X2977321Y-18076023D01*
X2977321Y-18147452D01*
X2963036Y-18204595D01*
X2948750Y-18233166D01*
X2934464Y-18247452D01*
X2905893Y-18261738D01*
X2877321Y-18261738D01*
X2848750Y-18247452D01*
X2834464Y-18233166D01*
X2820178Y-18204595D01*
X2805893Y-18147452D01*
X2805893Y-18076023D01*
X2820178Y-18018880D01*
X2834464Y-17990309D01*
X2848750Y-17976023D01*
X2877321Y-17961738D01*
X3105893Y-18233166D02*
X3120178Y-18247452D01*
X3105893Y-18261738D01*
X3091607Y-18247452D01*
X3105893Y-18233166D01*
X3105893Y-18261738D01*
X3220178Y-17961738D02*
X3420178Y-17961738D01*
X3291607Y-18261738D01*
X3591607Y-17961738D02*
X3620178Y-17961738D01*
X3648750Y-17976023D01*
X3663036Y-17990309D01*
X3677321Y-18018880D01*
X3691607Y-18076023D01*
X3691607Y-18147452D01*
X3677321Y-18204595D01*
X3663036Y-18233166D01*
X3648750Y-18247452D01*
X3620178Y-18261738D01*
X3591607Y-18261738D01*
X3563036Y-18247452D01*
X3548750Y-18233166D01*
X3534464Y-18204595D01*
X3520178Y-18147452D01*
X3520178Y-18076023D01*
X3534464Y-18018880D01*
X3548750Y-17990309D01*
X3563036Y-17976023D01*
X3591607Y-17961738D01*
X3877321Y-17961738D02*
X3905893Y-17961738D01*
X3934464Y-17976023D01*
X3948750Y-17990309D01*
X3963036Y-18018880D01*
X3977321Y-18076023D01*
X3977321Y-18147452D01*
X3963036Y-18204595D01*
X3948750Y-18233166D01*
X3934464Y-18247452D01*
X3905893Y-18261738D01*
X3877321Y-18261738D01*
X3848750Y-18247452D01*
X3834464Y-18233166D01*
X3820178Y-18204595D01*
X3805893Y-18147452D01*
X3805893Y-18076023D01*
X3820178Y-18018880D01*
X3834464Y-17990309D01*
X3848750Y-17976023D01*
X3877321Y-17961738D01*
X4105893Y-18261738D02*
X4105893Y-18061738D01*
X4105893Y-18090309D02*
X4120178Y-18076023D01*
X4148750Y-18061738D01*
X4191607Y-18061738D01*
X4220178Y-18076023D01*
X4234464Y-18104595D01*
X4234464Y-18261738D01*
X4234464Y-18104595D02*
X4248750Y-18076023D01*
X4277321Y-18061738D01*
X4320178Y-18061738D01*
X4348750Y-18076023D01*
X4363036Y-18104595D01*
X4363036Y-18261738D01*
X4505893Y-18261738D02*
X4505893Y-18061738D01*
X4505893Y-18090309D02*
X4520178Y-18076023D01*
X4548750Y-18061738D01*
X4591607Y-18061738D01*
X4620178Y-18076023D01*
X4634464Y-18104595D01*
X4634464Y-18261738D01*
X4634464Y-18104595D02*
X4648750Y-18076023D01*
X4677321Y-18061738D01*
X4720178Y-18061738D01*
X4748750Y-18076023D01*
X4763036Y-18104595D01*
X4763036Y-18261738D01*
X5348750Y-17947452D02*
X5091607Y-18333166D01*
X5734464Y-17961738D02*
X5763036Y-17961738D01*
X5791607Y-17976023D01*
X5805893Y-17990309D01*
X5820178Y-18018880D01*
X5834464Y-18076023D01*
X5834464Y-18147452D01*
X5820178Y-18204595D01*
X5805893Y-18233166D01*
X5791607Y-18247452D01*
X5763036Y-18261738D01*
X5734464Y-18261738D01*
X5705893Y-18247452D01*
X5691607Y-18233166D01*
X5677321Y-18204595D01*
X5663036Y-18147452D01*
X5663036Y-18076023D01*
X5677321Y-18018880D01*
X5691607Y-17990309D01*
X5705893Y-17976023D01*
X5734464Y-17961738D01*
X5963036Y-18233166D02*
X5977321Y-18247452D01*
X5963036Y-18261738D01*
X5948750Y-18247452D01*
X5963036Y-18233166D01*
X5963036Y-18261738D01*
X6163036Y-17961738D02*
X6191607Y-17961738D01*
X6220178Y-17976023D01*
X6234464Y-17990309D01*
X6248750Y-18018880D01*
X6263036Y-18076023D01*
X6263036Y-18147452D01*
X6248750Y-18204595D01*
X6234464Y-18233166D01*
X6220178Y-18247452D01*
X6191607Y-18261738D01*
X6163036Y-18261738D01*
X6134464Y-18247452D01*
X6120178Y-18233166D01*
X6105893Y-18204595D01*
X6091607Y-18147452D01*
X6091607Y-18076023D01*
X6105893Y-18018880D01*
X6120178Y-17990309D01*
X6134464Y-17976023D01*
X6163036Y-17961738D01*
X6377321Y-17990309D02*
X6391607Y-17976023D01*
X6420178Y-17961738D01*
X6491607Y-17961738D01*
X6520178Y-17976023D01*
X6534464Y-17990309D01*
X6548750Y-18018880D01*
X6548750Y-18047452D01*
X6534464Y-18090309D01*
X6363036Y-18261738D01*
X6548750Y-18261738D01*
X6648750Y-17961738D02*
X6848750Y-17961738D01*
X6720178Y-18261738D01*
X7091607Y-17961738D02*
X7034464Y-17961738D01*
X7005893Y-17976023D01*
X6991607Y-17990309D01*
X6963036Y-18033166D01*
X6948750Y-18090309D01*
X6948750Y-18204595D01*
X6963036Y-18233166D01*
X6977321Y-18247452D01*
X7005893Y-18261738D01*
X7063036Y-18261738D01*
X7091607Y-18247452D01*
X7105893Y-18233166D01*
X7120178Y-18204595D01*
X7120178Y-18133166D01*
X7105893Y-18104595D01*
X7091607Y-18090309D01*
X7063036Y-18076023D01*
X7005893Y-18076023D01*
X6977321Y-18090309D01*
X6963036Y-18104595D01*
X6948750Y-18133166D01*
X7234464Y-17961738D02*
X7234464Y-18018880D01*
X7348750Y-17961738D02*
X7348750Y-18018880D01*
X7791607Y-18376023D02*
X7777321Y-18361738D01*
X7748750Y-18318880D01*
X7734464Y-18290309D01*
X7720178Y-18247452D01*
X7705893Y-18176023D01*
X7705893Y-18118880D01*
X7720178Y-18047452D01*
X7734464Y-18004595D01*
X7748750Y-17976023D01*
X7777321Y-17933166D01*
X7791607Y-17918880D01*
X8048750Y-17961738D02*
X7905893Y-17961738D01*
X7891607Y-18104595D01*
X7905893Y-18090309D01*
X7934464Y-18076023D01*
X8005893Y-18076023D01*
X8034464Y-18090309D01*
X8048750Y-18104595D01*
X8063036Y-18133166D01*
X8063036Y-18204595D01*
X8048750Y-18233166D01*
X8034464Y-18247452D01*
X8005893Y-18261738D01*
X7934464Y-18261738D01*
X7905893Y-18247452D01*
X7891607Y-18233166D01*
X8420178Y-18261738D02*
X8420178Y-17961738D01*
X8548750Y-18261738D02*
X8548750Y-18104595D01*
X8534464Y-18076023D01*
X8505893Y-18061738D01*
X8463036Y-18061738D01*
X8434464Y-18076023D01*
X8420178Y-18090309D01*
X8734464Y-18261738D02*
X8705893Y-18247452D01*
X8691607Y-18233166D01*
X8677321Y-18204595D01*
X8677321Y-18118880D01*
X8691607Y-18090309D01*
X8705893Y-18076023D01*
X8734464Y-18061738D01*
X8777321Y-18061738D01*
X8805893Y-18076023D01*
X8820178Y-18090309D01*
X8834464Y-18118880D01*
X8834464Y-18204595D01*
X8820178Y-18233166D01*
X8805893Y-18247452D01*
X8777321Y-18261738D01*
X8734464Y-18261738D01*
X9005893Y-18261738D02*
X8977321Y-18247452D01*
X8963036Y-18218880D01*
X8963036Y-17961738D01*
X9234464Y-18247452D02*
X9205893Y-18261738D01*
X9148750Y-18261738D01*
X9120178Y-18247452D01*
X9105893Y-18218880D01*
X9105893Y-18104595D01*
X9120178Y-18076023D01*
X9148750Y-18061738D01*
X9205893Y-18061738D01*
X9234464Y-18076023D01*
X9248750Y-18104595D01*
X9248750Y-18133166D01*
X9105893Y-18161738D01*
X9363036Y-18247452D02*
X9391607Y-18261738D01*
X9448750Y-18261738D01*
X9477321Y-18247452D01*
X9491607Y-18218880D01*
X9491607Y-18204595D01*
X9477321Y-18176023D01*
X9448750Y-18161738D01*
X9405893Y-18161738D01*
X9377321Y-18147452D01*
X9363036Y-18118880D01*
X9363036Y-18104595D01*
X9377321Y-18076023D01*
X9405893Y-18061738D01*
X9448750Y-18061738D01*
X9477321Y-18076023D01*
X9591607Y-18376023D02*
X9605893Y-18361738D01*
X9634464Y-18318880D01*
X9648750Y-18290309D01*
X9663036Y-18247452D01*
X9677321Y-18176023D01*
X9677321Y-18118880D01*
X9663036Y-18047452D01*
X9648750Y-18004595D01*
X9634464Y-17976023D01*
X9605893Y-17933166D01*
X9591607Y-17918880D01*
X2493750Y-18482023D02*
X2493750Y-18562023D01*
X2453750Y-18522023D02*
X2533750Y-18522023D01*
X2877321Y-18357738D02*
X2905893Y-18357738D01*
X2934464Y-18372023D01*
X2948750Y-18386309D01*
X2963036Y-18414880D01*
X2977321Y-18472023D01*
X2977321Y-18543452D01*
X2963036Y-18600595D01*
X2948750Y-18629166D01*
X2934464Y-18643452D01*
X2905893Y-18657738D01*
X2877321Y-18657738D01*
X2848750Y-18643452D01*
X2834464Y-18629166D01*
X2820178Y-18600595D01*
X2805893Y-18543452D01*
X2805893Y-18472023D01*
X2820178Y-18414880D01*
X2834464Y-18386309D01*
X2848750Y-18372023D01*
X2877321Y-18357738D01*
X3105893Y-18629166D02*
X3120178Y-18643452D01*
X3105893Y-18657738D01*
X3091607Y-18643452D01*
X3105893Y-18629166D01*
X3105893Y-18657738D01*
X3291607Y-18486309D02*
X3263036Y-18472023D01*
X3248750Y-18457738D01*
X3234464Y-18429166D01*
X3234464Y-18414880D01*
X3248750Y-18386309D01*
X3263036Y-18372023D01*
X3291607Y-18357738D01*
X3348750Y-18357738D01*
X3377321Y-18372023D01*
X3391607Y-18386309D01*
X3405893Y-18414880D01*
X3405893Y-18429166D01*
X3391607Y-18457738D01*
X3377321Y-18472023D01*
X3348750Y-18486309D01*
X3291607Y-18486309D01*
X3263036Y-18500595D01*
X3248750Y-18514880D01*
X3234464Y-18543452D01*
X3234464Y-18600595D01*
X3248750Y-18629166D01*
X3263036Y-18643452D01*
X3291607Y-18657738D01*
X3348750Y-18657738D01*
X3377321Y-18643452D01*
X3391607Y-18629166D01*
X3405893Y-18600595D01*
X3405893Y-18543452D01*
X3391607Y-18514880D01*
X3377321Y-18500595D01*
X3348750Y-18486309D01*
X3591607Y-18357738D02*
X3620178Y-18357738D01*
X3648750Y-18372023D01*
X3663036Y-18386309D01*
X3677321Y-18414880D01*
X3691607Y-18472023D01*
X3691607Y-18543452D01*
X3677321Y-18600595D01*
X3663036Y-18629166D01*
X3648750Y-18643452D01*
X3620178Y-18657738D01*
X3591607Y-18657738D01*
X3563036Y-18643452D01*
X3548750Y-18629166D01*
X3534464Y-18600595D01*
X3520178Y-18543452D01*
X3520178Y-18472023D01*
X3534464Y-18414880D01*
X3548750Y-18386309D01*
X3563036Y-18372023D01*
X3591607Y-18357738D01*
X3877321Y-18357738D02*
X3905893Y-18357738D01*
X3934464Y-18372023D01*
X3948750Y-18386309D01*
X3963036Y-18414880D01*
X3977321Y-18472023D01*
X3977321Y-18543452D01*
X3963036Y-18600595D01*
X3948750Y-18629166D01*
X3934464Y-18643452D01*
X3905893Y-18657738D01*
X3877321Y-18657738D01*
X3848750Y-18643452D01*
X3834464Y-18629166D01*
X3820178Y-18600595D01*
X3805893Y-18543452D01*
X3805893Y-18472023D01*
X3820178Y-18414880D01*
X3834464Y-18386309D01*
X3848750Y-18372023D01*
X3877321Y-18357738D01*
X4105893Y-18657738D02*
X4105893Y-18457738D01*
X4105893Y-18486309D02*
X4120178Y-18472023D01*
X4148750Y-18457738D01*
X4191607Y-18457738D01*
X4220178Y-18472023D01*
X4234464Y-18500595D01*
X4234464Y-18657738D01*
X4234464Y-18500595D02*
X4248750Y-18472023D01*
X4277321Y-18457738D01*
X4320178Y-18457738D01*
X4348750Y-18472023D01*
X4363036Y-18500595D01*
X4363036Y-18657738D01*
X4505893Y-18657738D02*
X4505893Y-18457738D01*
X4505893Y-18486309D02*
X4520178Y-18472023D01*
X4548750Y-18457738D01*
X4591607Y-18457738D01*
X4620178Y-18472023D01*
X4634464Y-18500595D01*
X4634464Y-18657738D01*
X4634464Y-18500595D02*
X4648750Y-18472023D01*
X4677321Y-18457738D01*
X4720178Y-18457738D01*
X4748750Y-18472023D01*
X4763036Y-18500595D01*
X4763036Y-18657738D01*
X5348750Y-18343452D02*
X5091607Y-18729166D01*
X5734464Y-18357738D02*
X5763036Y-18357738D01*
X5791607Y-18372023D01*
X5805893Y-18386309D01*
X5820178Y-18414880D01*
X5834464Y-18472023D01*
X5834464Y-18543452D01*
X5820178Y-18600595D01*
X5805893Y-18629166D01*
X5791607Y-18643452D01*
X5763036Y-18657738D01*
X5734464Y-18657738D01*
X5705893Y-18643452D01*
X5691607Y-18629166D01*
X5677321Y-18600595D01*
X5663036Y-18543452D01*
X5663036Y-18472023D01*
X5677321Y-18414880D01*
X5691607Y-18386309D01*
X5705893Y-18372023D01*
X5734464Y-18357738D01*
X5963036Y-18629166D02*
X5977321Y-18643452D01*
X5963036Y-18657738D01*
X5948750Y-18643452D01*
X5963036Y-18629166D01*
X5963036Y-18657738D01*
X6163036Y-18357738D02*
X6191607Y-18357738D01*
X6220178Y-18372023D01*
X6234464Y-18386309D01*
X6248750Y-18414880D01*
X6263036Y-18472023D01*
X6263036Y-18543452D01*
X6248750Y-18600595D01*
X6234464Y-18629166D01*
X6220178Y-18643452D01*
X6191607Y-18657738D01*
X6163036Y-18657738D01*
X6134464Y-18643452D01*
X6120178Y-18629166D01*
X6105893Y-18600595D01*
X6091607Y-18543452D01*
X6091607Y-18472023D01*
X6105893Y-18414880D01*
X6120178Y-18386309D01*
X6134464Y-18372023D01*
X6163036Y-18357738D01*
X6363036Y-18357738D02*
X6548750Y-18357738D01*
X6448750Y-18472023D01*
X6491607Y-18472023D01*
X6520178Y-18486309D01*
X6534464Y-18500595D01*
X6548750Y-18529166D01*
X6548750Y-18600595D01*
X6534464Y-18629166D01*
X6520178Y-18643452D01*
X6491607Y-18657738D01*
X6405893Y-18657738D01*
X6377321Y-18643452D01*
X6363036Y-18629166D01*
X6834464Y-18657738D02*
X6663036Y-18657738D01*
X6748750Y-18657738D02*
X6748750Y-18357738D01*
X6720178Y-18400595D01*
X6691607Y-18429166D01*
X6663036Y-18443452D01*
X7105893Y-18357738D02*
X6963036Y-18357738D01*
X6948750Y-18500595D01*
X6963036Y-18486309D01*
X6991607Y-18472023D01*
X7063036Y-18472023D01*
X7091607Y-18486309D01*
X7105893Y-18500595D01*
X7120178Y-18529166D01*
X7120178Y-18600595D01*
X7105893Y-18629166D01*
X7091607Y-18643452D01*
X7063036Y-18657738D01*
X6991607Y-18657738D01*
X6963036Y-18643452D01*
X6948750Y-18629166D01*
X7234464Y-18357738D02*
X7234464Y-18414880D01*
X7348750Y-18357738D02*
X7348750Y-18414880D01*
X7791607Y-18772023D02*
X7777321Y-18757738D01*
X7748750Y-18714880D01*
X7734464Y-18686309D01*
X7720178Y-18643452D01*
X7705893Y-18572023D01*
X7705893Y-18514880D01*
X7720178Y-18443452D01*
X7734464Y-18400595D01*
X7748750Y-18372023D01*
X7777321Y-18329166D01*
X7791607Y-18314880D01*
X7963036Y-18357738D02*
X7991607Y-18357738D01*
X8020178Y-18372023D01*
X8034464Y-18386309D01*
X8048750Y-18414880D01*
X8063036Y-18472023D01*
X8063036Y-18543452D01*
X8048750Y-18600595D01*
X8034464Y-18629166D01*
X8020178Y-18643452D01*
X7991607Y-18657738D01*
X7963036Y-18657738D01*
X7934464Y-18643452D01*
X7920178Y-18629166D01*
X7905893Y-18600595D01*
X7891607Y-18543452D01*
X7891607Y-18472023D01*
X7905893Y-18414880D01*
X7920178Y-18386309D01*
X7934464Y-18372023D01*
X7963036Y-18357738D01*
X8420178Y-18657738D02*
X8420178Y-18357738D01*
X8548750Y-18657738D02*
X8548750Y-18500595D01*
X8534464Y-18472023D01*
X8505893Y-18457738D01*
X8463036Y-18457738D01*
X8434464Y-18472023D01*
X8420178Y-18486309D01*
X8734464Y-18657738D02*
X8705893Y-18643452D01*
X8691607Y-18629166D01*
X8677321Y-18600595D01*
X8677321Y-18514880D01*
X8691607Y-18486309D01*
X8705893Y-18472023D01*
X8734464Y-18457738D01*
X8777321Y-18457738D01*
X8805893Y-18472023D01*
X8820178Y-18486309D01*
X8834464Y-18514880D01*
X8834464Y-18600595D01*
X8820178Y-18629166D01*
X8805893Y-18643452D01*
X8777321Y-18657738D01*
X8734464Y-18657738D01*
X9005893Y-18657738D02*
X8977321Y-18643452D01*
X8963036Y-18614880D01*
X8963036Y-18357738D01*
X9234464Y-18643452D02*
X9205893Y-18657738D01*
X9148750Y-18657738D01*
X9120178Y-18643452D01*
X9105893Y-18614880D01*
X9105893Y-18500595D01*
X9120178Y-18472023D01*
X9148750Y-18457738D01*
X9205893Y-18457738D01*
X9234464Y-18472023D01*
X9248750Y-18500595D01*
X9248750Y-18529166D01*
X9105893Y-18557738D01*
X9363036Y-18643452D02*
X9391607Y-18657738D01*
X9448750Y-18657738D01*
X9477321Y-18643452D01*
X9491607Y-18614880D01*
X9491607Y-18600595D01*
X9477321Y-18572023D01*
X9448750Y-18557738D01*
X9405893Y-18557738D01*
X9377321Y-18543452D01*
X9363036Y-18514880D01*
X9363036Y-18500595D01*
X9377321Y-18472023D01*
X9405893Y-18457738D01*
X9448750Y-18457738D01*
X9477321Y-18472023D01*
X9848750Y-18543452D02*
X10077321Y-18543452D01*
X9963036Y-18657738D02*
X9963036Y-18429166D01*
X10434464Y-18386309D02*
X10448750Y-18372023D01*
X10477321Y-18357738D01*
X10548750Y-18357738D01*
X10577321Y-18372023D01*
X10591607Y-18386309D01*
X10605893Y-18414880D01*
X10605893Y-18443452D01*
X10591607Y-18486309D01*
X10420178Y-18657738D01*
X10605893Y-18657738D01*
X10948750Y-18643452D02*
X10977321Y-18657738D01*
X11034464Y-18657738D01*
X11063036Y-18643452D01*
X11077321Y-18614880D01*
X11077321Y-18600595D01*
X11063036Y-18572023D01*
X11034464Y-18557738D01*
X10991607Y-18557738D01*
X10963036Y-18543452D01*
X10948750Y-18514880D01*
X10948750Y-18500595D01*
X10963036Y-18472023D01*
X10991607Y-18457738D01*
X11034464Y-18457738D01*
X11063036Y-18472023D01*
X11248750Y-18657738D02*
X11220178Y-18643452D01*
X11205893Y-18614880D01*
X11205893Y-18357738D01*
X11405893Y-18657738D02*
X11377321Y-18643452D01*
X11363036Y-18629166D01*
X11348750Y-18600595D01*
X11348750Y-18514880D01*
X11363036Y-18486309D01*
X11377321Y-18472023D01*
X11405893Y-18457738D01*
X11448750Y-18457738D01*
X11477321Y-18472023D01*
X11491607Y-18486309D01*
X11505893Y-18514880D01*
X11505893Y-18600595D01*
X11491607Y-18629166D01*
X11477321Y-18643452D01*
X11448750Y-18657738D01*
X11405893Y-18657738D01*
X11591607Y-18457738D02*
X11705893Y-18457738D01*
X11634464Y-18357738D02*
X11634464Y-18614880D01*
X11648750Y-18643452D01*
X11677321Y-18657738D01*
X11705893Y-18657738D01*
X11791607Y-18643452D02*
X11820178Y-18657738D01*
X11877321Y-18657738D01*
X11905893Y-18643452D01*
X11920178Y-18614880D01*
X11920178Y-18600595D01*
X11905893Y-18572023D01*
X11877321Y-18557738D01*
X11834464Y-18557738D01*
X11805893Y-18543452D01*
X11791607Y-18514880D01*
X11791607Y-18500595D01*
X11805893Y-18472023D01*
X11834464Y-18457738D01*
X11877321Y-18457738D01*
X11905893Y-18472023D01*
X12020178Y-18772023D02*
X12034464Y-18757738D01*
X12063036Y-18714880D01*
X12077321Y-18686309D01*
X12091607Y-18643452D01*
X12105893Y-18572023D01*
X12105893Y-18514880D01*
X12091607Y-18443452D01*
X12077321Y-18400595D01*
X12063036Y-18372023D01*
X12034464Y-18329166D01*
X12020178Y-18314880D01*
X2519106Y-18953379D02*
X2519106Y-18882668D01*
X2448394Y-18882668D01*
X2448394Y-18953379D01*
X2519106Y-18953379D01*
X2977321Y-19053738D02*
X2805893Y-19053738D01*
X2891607Y-19053738D02*
X2891607Y-18753738D01*
X2863036Y-18796595D01*
X2834464Y-18825166D01*
X2805893Y-18839452D01*
X3105893Y-19025166D02*
X3120178Y-19039452D01*
X3105893Y-19053738D01*
X3091607Y-19039452D01*
X3105893Y-19025166D01*
X3105893Y-19053738D01*
X3305893Y-18753738D02*
X3334464Y-18753738D01*
X3363036Y-18768023D01*
X3377321Y-18782309D01*
X3391607Y-18810880D01*
X3405893Y-18868023D01*
X3405893Y-18939452D01*
X3391607Y-18996595D01*
X3377321Y-19025166D01*
X3363036Y-19039452D01*
X3334464Y-19053738D01*
X3305893Y-19053738D01*
X3277321Y-19039452D01*
X3263036Y-19025166D01*
X3248750Y-18996595D01*
X3234464Y-18939452D01*
X3234464Y-18868023D01*
X3248750Y-18810880D01*
X3263036Y-18782309D01*
X3277321Y-18768023D01*
X3305893Y-18753738D01*
X3591607Y-18753738D02*
X3620178Y-18753738D01*
X3648750Y-18768023D01*
X3663036Y-18782309D01*
X3677321Y-18810880D01*
X3691607Y-18868023D01*
X3691607Y-18939452D01*
X3677321Y-18996595D01*
X3663036Y-19025166D01*
X3648750Y-19039452D01*
X3620178Y-19053738D01*
X3591607Y-19053738D01*
X3563036Y-19039452D01*
X3548750Y-19025166D01*
X3534464Y-18996595D01*
X3520178Y-18939452D01*
X3520178Y-18868023D01*
X3534464Y-18810880D01*
X3548750Y-18782309D01*
X3563036Y-18768023D01*
X3591607Y-18753738D01*
X3877321Y-18753738D02*
X3905893Y-18753738D01*
X3934464Y-18768023D01*
X3948750Y-18782309D01*
X3963036Y-18810880D01*
X3977321Y-18868023D01*
X3977321Y-18939452D01*
X3963036Y-18996595D01*
X3948750Y-19025166D01*
X3934464Y-19039452D01*
X3905893Y-19053738D01*
X3877321Y-19053738D01*
X3848750Y-19039452D01*
X3834464Y-19025166D01*
X3820178Y-18996595D01*
X3805893Y-18939452D01*
X3805893Y-18868023D01*
X3820178Y-18810880D01*
X3834464Y-18782309D01*
X3848750Y-18768023D01*
X3877321Y-18753738D01*
X4105893Y-19053738D02*
X4105893Y-18853738D01*
X4105893Y-18882309D02*
X4120178Y-18868023D01*
X4148750Y-18853738D01*
X4191607Y-18853738D01*
X4220178Y-18868023D01*
X4234464Y-18896595D01*
X4234464Y-19053738D01*
X4234464Y-18896595D02*
X4248750Y-18868023D01*
X4277321Y-18853738D01*
X4320178Y-18853738D01*
X4348750Y-18868023D01*
X4363036Y-18896595D01*
X4363036Y-19053738D01*
X4505893Y-19053738D02*
X4505893Y-18853738D01*
X4505893Y-18882309D02*
X4520178Y-18868023D01*
X4548750Y-18853738D01*
X4591607Y-18853738D01*
X4620178Y-18868023D01*
X4634464Y-18896595D01*
X4634464Y-19053738D01*
X4634464Y-18896595D02*
X4648750Y-18868023D01*
X4677321Y-18853738D01*
X4720178Y-18853738D01*
X4748750Y-18868023D01*
X4763036Y-18896595D01*
X4763036Y-19053738D01*
X5348750Y-18739452D02*
X5091607Y-19125166D01*
X5734464Y-18753738D02*
X5763036Y-18753738D01*
X5791607Y-18768023D01*
X5805893Y-18782309D01*
X5820178Y-18810880D01*
X5834464Y-18868023D01*
X5834464Y-18939452D01*
X5820178Y-18996595D01*
X5805893Y-19025166D01*
X5791607Y-19039452D01*
X5763036Y-19053738D01*
X5734464Y-19053738D01*
X5705893Y-19039452D01*
X5691607Y-19025166D01*
X5677321Y-18996595D01*
X5663036Y-18939452D01*
X5663036Y-18868023D01*
X5677321Y-18810880D01*
X5691607Y-18782309D01*
X5705893Y-18768023D01*
X5734464Y-18753738D01*
X5963036Y-19025166D02*
X5977321Y-19039452D01*
X5963036Y-19053738D01*
X5948750Y-19039452D01*
X5963036Y-19025166D01*
X5963036Y-19053738D01*
X6163036Y-18753738D02*
X6191607Y-18753738D01*
X6220178Y-18768023D01*
X6234464Y-18782309D01*
X6248750Y-18810880D01*
X6263036Y-18868023D01*
X6263036Y-18939452D01*
X6248750Y-18996595D01*
X6234464Y-19025166D01*
X6220178Y-19039452D01*
X6191607Y-19053738D01*
X6163036Y-19053738D01*
X6134464Y-19039452D01*
X6120178Y-19025166D01*
X6105893Y-18996595D01*
X6091607Y-18939452D01*
X6091607Y-18868023D01*
X6105893Y-18810880D01*
X6120178Y-18782309D01*
X6134464Y-18768023D01*
X6163036Y-18753738D01*
X6363036Y-18753738D02*
X6548750Y-18753738D01*
X6448750Y-18868023D01*
X6491607Y-18868023D01*
X6520178Y-18882309D01*
X6534464Y-18896595D01*
X6548750Y-18925166D01*
X6548750Y-18996595D01*
X6534464Y-19025166D01*
X6520178Y-19039452D01*
X6491607Y-19053738D01*
X6405893Y-19053738D01*
X6377321Y-19039452D01*
X6363036Y-19025166D01*
X6691607Y-19053738D02*
X6748750Y-19053738D01*
X6777321Y-19039452D01*
X6791607Y-19025166D01*
X6820178Y-18982309D01*
X6834464Y-18925166D01*
X6834464Y-18810880D01*
X6820178Y-18782309D01*
X6805893Y-18768023D01*
X6777321Y-18753738D01*
X6720178Y-18753738D01*
X6691607Y-18768023D01*
X6677321Y-18782309D01*
X6663036Y-18810880D01*
X6663036Y-18882309D01*
X6677321Y-18910880D01*
X6691607Y-18925166D01*
X6720178Y-18939452D01*
X6777321Y-18939452D01*
X6805893Y-18925166D01*
X6820178Y-18910880D01*
X6834464Y-18882309D01*
X7091607Y-18853738D02*
X7091607Y-19053738D01*
X7020178Y-18739452D02*
X6948750Y-18953738D01*
X7134464Y-18953738D01*
X7234464Y-18753738D02*
X7234464Y-18810880D01*
X7348750Y-18753738D02*
X7348750Y-18810880D01*
X7791607Y-19168023D02*
X7777321Y-19153738D01*
X7748750Y-19110880D01*
X7734464Y-19082309D01*
X7720178Y-19039452D01*
X7705893Y-18968023D01*
X7705893Y-18910880D01*
X7720178Y-18839452D01*
X7734464Y-18796595D01*
X7748750Y-18768023D01*
X7777321Y-18725166D01*
X7791607Y-18710880D01*
X8063036Y-19053738D02*
X7891607Y-19053738D01*
X7977321Y-19053738D02*
X7977321Y-18753738D01*
X7948750Y-18796595D01*
X7920178Y-18825166D01*
X7891607Y-18839452D01*
X8334464Y-18753738D02*
X8191607Y-18753738D01*
X8177321Y-18896595D01*
X8191607Y-18882309D01*
X8220178Y-18868023D01*
X8291607Y-18868023D01*
X8320178Y-18882309D01*
X8334464Y-18896595D01*
X8348750Y-18925166D01*
X8348750Y-18996595D01*
X8334464Y-19025166D01*
X8320178Y-19039452D01*
X8291607Y-19053738D01*
X8220178Y-19053738D01*
X8191607Y-19039452D01*
X8177321Y-19025166D01*
X8705893Y-19053738D02*
X8705893Y-18753738D01*
X8834464Y-19053738D02*
X8834464Y-18896595D01*
X8820178Y-18868023D01*
X8791607Y-18853738D01*
X8748750Y-18853738D01*
X8720178Y-18868023D01*
X8705893Y-18882309D01*
X9020178Y-19053738D02*
X8991607Y-19039452D01*
X8977321Y-19025166D01*
X8963036Y-18996595D01*
X8963036Y-18910880D01*
X8977321Y-18882309D01*
X8991607Y-18868023D01*
X9020178Y-18853738D01*
X9063036Y-18853738D01*
X9091607Y-18868023D01*
X9105893Y-18882309D01*
X9120178Y-18910880D01*
X9120178Y-18996595D01*
X9105893Y-19025166D01*
X9091607Y-19039452D01*
X9063036Y-19053738D01*
X9020178Y-19053738D01*
X9291607Y-19053738D02*
X9263036Y-19039452D01*
X9248750Y-19010880D01*
X9248750Y-18753738D01*
X9520178Y-19039452D02*
X9491607Y-19053738D01*
X9434464Y-19053738D01*
X9405893Y-19039452D01*
X9391607Y-19010880D01*
X9391607Y-18896595D01*
X9405893Y-18868023D01*
X9434464Y-18853738D01*
X9491607Y-18853738D01*
X9520178Y-18868023D01*
X9534464Y-18896595D01*
X9534464Y-18925166D01*
X9391607Y-18953738D01*
X9648750Y-19039452D02*
X9677321Y-19053738D01*
X9734464Y-19053738D01*
X9763036Y-19039452D01*
X9777321Y-19010880D01*
X9777321Y-18996595D01*
X9763036Y-18968023D01*
X9734464Y-18953738D01*
X9691607Y-18953738D01*
X9663036Y-18939452D01*
X9648750Y-18910880D01*
X9648750Y-18896595D01*
X9663036Y-18868023D01*
X9691607Y-18853738D01*
X9734464Y-18853738D01*
X9763036Y-18868023D01*
X9877321Y-19168023D02*
X9891607Y-19153738D01*
X9920178Y-19110880D01*
X9934464Y-19082309D01*
X9948750Y-19039452D01*
X9963036Y-18968023D01*
X9963036Y-18910880D01*
X9948750Y-18839452D01*
X9934464Y-18796595D01*
X9920178Y-18768023D01*
X9891607Y-18725166D01*
X9877321Y-18710880D01*
X2481750Y-19366023D02*
X2533750Y-19314023D01*
X2481750Y-19262023D01*
X2429750Y-19314023D01*
X2481750Y-19366023D01*
X2977321Y-19449738D02*
X2805893Y-19449738D01*
X2891607Y-19449738D02*
X2891607Y-19149738D01*
X2863036Y-19192595D01*
X2834464Y-19221166D01*
X2805893Y-19235452D01*
X3105893Y-19421166D02*
X3120178Y-19435452D01*
X3105893Y-19449738D01*
X3091607Y-19435452D01*
X3105893Y-19421166D01*
X3105893Y-19449738D01*
X3305893Y-19149738D02*
X3334464Y-19149738D01*
X3363036Y-19164023D01*
X3377321Y-19178309D01*
X3391607Y-19206880D01*
X3405893Y-19264023D01*
X3405893Y-19335452D01*
X3391607Y-19392595D01*
X3377321Y-19421166D01*
X3363036Y-19435452D01*
X3334464Y-19449738D01*
X3305893Y-19449738D01*
X3277321Y-19435452D01*
X3263036Y-19421166D01*
X3248750Y-19392595D01*
X3234464Y-19335452D01*
X3234464Y-19264023D01*
X3248750Y-19206880D01*
X3263036Y-19178309D01*
X3277321Y-19164023D01*
X3305893Y-19149738D01*
X3663036Y-19249738D02*
X3663036Y-19449738D01*
X3591607Y-19135452D02*
X3520178Y-19349738D01*
X3705893Y-19349738D01*
X3877321Y-19149738D02*
X3905893Y-19149738D01*
X3934464Y-19164023D01*
X3948750Y-19178309D01*
X3963036Y-19206880D01*
X3977321Y-19264023D01*
X3977321Y-19335452D01*
X3963036Y-19392595D01*
X3948750Y-19421166D01*
X3934464Y-19435452D01*
X3905893Y-19449738D01*
X3877321Y-19449738D01*
X3848750Y-19435452D01*
X3834464Y-19421166D01*
X3820178Y-19392595D01*
X3805893Y-19335452D01*
X3805893Y-19264023D01*
X3820178Y-19206880D01*
X3834464Y-19178309D01*
X3848750Y-19164023D01*
X3877321Y-19149738D01*
X4105893Y-19449738D02*
X4105893Y-19249738D01*
X4105893Y-19278309D02*
X4120178Y-19264023D01*
X4148750Y-19249738D01*
X4191607Y-19249738D01*
X4220178Y-19264023D01*
X4234464Y-19292595D01*
X4234464Y-19449738D01*
X4234464Y-19292595D02*
X4248750Y-19264023D01*
X4277321Y-19249738D01*
X4320178Y-19249738D01*
X4348750Y-19264023D01*
X4363036Y-19292595D01*
X4363036Y-19449738D01*
X4505893Y-19449738D02*
X4505893Y-19249738D01*
X4505893Y-19278309D02*
X4520178Y-19264023D01*
X4548750Y-19249738D01*
X4591607Y-19249738D01*
X4620178Y-19264023D01*
X4634464Y-19292595D01*
X4634464Y-19449738D01*
X4634464Y-19292595D02*
X4648750Y-19264023D01*
X4677321Y-19249738D01*
X4720178Y-19249738D01*
X4748750Y-19264023D01*
X4763036Y-19292595D01*
X4763036Y-19449738D01*
X5348750Y-19135452D02*
X5091607Y-19521166D01*
X5734464Y-19149738D02*
X5763036Y-19149738D01*
X5791607Y-19164023D01*
X5805893Y-19178309D01*
X5820178Y-19206880D01*
X5834464Y-19264023D01*
X5834464Y-19335452D01*
X5820178Y-19392595D01*
X5805893Y-19421166D01*
X5791607Y-19435452D01*
X5763036Y-19449738D01*
X5734464Y-19449738D01*
X5705893Y-19435452D01*
X5691607Y-19421166D01*
X5677321Y-19392595D01*
X5663036Y-19335452D01*
X5663036Y-19264023D01*
X5677321Y-19206880D01*
X5691607Y-19178309D01*
X5705893Y-19164023D01*
X5734464Y-19149738D01*
X5963036Y-19421166D02*
X5977321Y-19435452D01*
X5963036Y-19449738D01*
X5948750Y-19435452D01*
X5963036Y-19421166D01*
X5963036Y-19449738D01*
X6163036Y-19149738D02*
X6191607Y-19149738D01*
X6220178Y-19164023D01*
X6234464Y-19178309D01*
X6248750Y-19206880D01*
X6263036Y-19264023D01*
X6263036Y-19335452D01*
X6248750Y-19392595D01*
X6234464Y-19421166D01*
X6220178Y-19435452D01*
X6191607Y-19449738D01*
X6163036Y-19449738D01*
X6134464Y-19435452D01*
X6120178Y-19421166D01*
X6105893Y-19392595D01*
X6091607Y-19335452D01*
X6091607Y-19264023D01*
X6105893Y-19206880D01*
X6120178Y-19178309D01*
X6134464Y-19164023D01*
X6163036Y-19149738D01*
X6520178Y-19249738D02*
X6520178Y-19449738D01*
X6448750Y-19135452D02*
X6377321Y-19349738D01*
X6563036Y-19349738D01*
X6734464Y-19149738D02*
X6763036Y-19149738D01*
X6791607Y-19164023D01*
X6805893Y-19178309D01*
X6820178Y-19206880D01*
X6834464Y-19264023D01*
X6834464Y-19335452D01*
X6820178Y-19392595D01*
X6805893Y-19421166D01*
X6791607Y-19435452D01*
X6763036Y-19449738D01*
X6734464Y-19449738D01*
X6705893Y-19435452D01*
X6691607Y-19421166D01*
X6677321Y-19392595D01*
X6663036Y-19335452D01*
X6663036Y-19264023D01*
X6677321Y-19206880D01*
X6691607Y-19178309D01*
X6705893Y-19164023D01*
X6734464Y-19149738D01*
X6977321Y-19449738D02*
X7034464Y-19449738D01*
X7063036Y-19435452D01*
X7077321Y-19421166D01*
X7105893Y-19378309D01*
X7120178Y-19321166D01*
X7120178Y-19206880D01*
X7105893Y-19178309D01*
X7091607Y-19164023D01*
X7063036Y-19149738D01*
X7005893Y-19149738D01*
X6977321Y-19164023D01*
X6963036Y-19178309D01*
X6948750Y-19206880D01*
X6948750Y-19278309D01*
X6963036Y-19306880D01*
X6977321Y-19321166D01*
X7005893Y-19335452D01*
X7063036Y-19335452D01*
X7091607Y-19321166D01*
X7105893Y-19306880D01*
X7120178Y-19278309D01*
X7234464Y-19149738D02*
X7234464Y-19206880D01*
X7348750Y-19149738D02*
X7348750Y-19206880D01*
X7791607Y-19564023D02*
X7777321Y-19549738D01*
X7748750Y-19506880D01*
X7734464Y-19478309D01*
X7720178Y-19435452D01*
X7705893Y-19364023D01*
X7705893Y-19306880D01*
X7720178Y-19235452D01*
X7734464Y-19192595D01*
X7748750Y-19164023D01*
X7777321Y-19121166D01*
X7791607Y-19106880D01*
X8063036Y-19449738D02*
X7891607Y-19449738D01*
X7977321Y-19449738D02*
X7977321Y-19149738D01*
X7948750Y-19192595D01*
X7920178Y-19221166D01*
X7891607Y-19235452D01*
X8320178Y-19149738D02*
X8263036Y-19149738D01*
X8234464Y-19164023D01*
X8220178Y-19178309D01*
X8191607Y-19221166D01*
X8177321Y-19278309D01*
X8177321Y-19392595D01*
X8191607Y-19421166D01*
X8205893Y-19435452D01*
X8234464Y-19449738D01*
X8291607Y-19449738D01*
X8320178Y-19435452D01*
X8334464Y-19421166D01*
X8348750Y-19392595D01*
X8348750Y-19321166D01*
X8334464Y-19292595D01*
X8320178Y-19278309D01*
X8291607Y-19264023D01*
X8234464Y-19264023D01*
X8205893Y-19278309D01*
X8191607Y-19292595D01*
X8177321Y-19321166D01*
X8605893Y-19249738D02*
X8605893Y-19449738D01*
X8534464Y-19135452D02*
X8463036Y-19349738D01*
X8648750Y-19349738D01*
X8991607Y-19449738D02*
X8991607Y-19149738D01*
X9120178Y-19449738D02*
X9120178Y-19292595D01*
X9105893Y-19264023D01*
X9077321Y-19249738D01*
X9034464Y-19249738D01*
X9005893Y-19264023D01*
X8991607Y-19278309D01*
X9305893Y-19449738D02*
X9277321Y-19435452D01*
X9263036Y-19421166D01*
X9248750Y-19392595D01*
X9248750Y-19306880D01*
X9263036Y-19278309D01*
X9277321Y-19264023D01*
X9305893Y-19249738D01*
X9348750Y-19249738D01*
X9377321Y-19264023D01*
X9391607Y-19278309D01*
X9405893Y-19306880D01*
X9405893Y-19392595D01*
X9391607Y-19421166D01*
X9377321Y-19435452D01*
X9348750Y-19449738D01*
X9305893Y-19449738D01*
X9577321Y-19449738D02*
X9548750Y-19435452D01*
X9534464Y-19406880D01*
X9534464Y-19149738D01*
X9805893Y-19435452D02*
X9777321Y-19449738D01*
X9720178Y-19449738D01*
X9691607Y-19435452D01*
X9677321Y-19406880D01*
X9677321Y-19292595D01*
X9691607Y-19264023D01*
X9720178Y-19249738D01*
X9777321Y-19249738D01*
X9805893Y-19264023D01*
X9820178Y-19292595D01*
X9820178Y-19321166D01*
X9677321Y-19349738D01*
X9934464Y-19435452D02*
X9963036Y-19449738D01*
X10020178Y-19449738D01*
X10048750Y-19435452D01*
X10063036Y-19406880D01*
X10063036Y-19392595D01*
X10048750Y-19364023D01*
X10020178Y-19349738D01*
X9977321Y-19349738D01*
X9948750Y-19335452D01*
X9934464Y-19306880D01*
X9934464Y-19292595D01*
X9948750Y-19264023D01*
X9977321Y-19249738D01*
X10020178Y-19249738D01*
X10048750Y-19264023D01*
X10163036Y-19564023D02*
X10177321Y-19549738D01*
X10205893Y-19506880D01*
X10220178Y-19478309D01*
X10234464Y-19435452D01*
X10248750Y-19364023D01*
X10248750Y-19306880D01*
X10234464Y-19235452D01*
X10220178Y-19192595D01*
X10205893Y-19164023D01*
X10177321Y-19121166D01*
X10163036Y-19106880D01*
X2386750Y-19636523D02*
X2533750Y-19783523D01*
X2533750Y-19636523D02*
X2386750Y-19783523D01*
X2533750Y-19710023D02*
G75*
G03*
X2533750Y-19710023I-73500J0D01*
G01*
X2977321Y-19845738D02*
X2805893Y-19845738D01*
X2891607Y-19845738D02*
X2891607Y-19545738D01*
X2863036Y-19588595D01*
X2834464Y-19617166D01*
X2805893Y-19631452D01*
X3105893Y-19817166D02*
X3120178Y-19831452D01*
X3105893Y-19845738D01*
X3091607Y-19831452D01*
X3105893Y-19817166D01*
X3105893Y-19845738D01*
X3377321Y-19645738D02*
X3377321Y-19845738D01*
X3305893Y-19531452D02*
X3234464Y-19745738D01*
X3420178Y-19745738D01*
X3505893Y-19545738D02*
X3705893Y-19545738D01*
X3577321Y-19845738D01*
X3877321Y-19545738D02*
X3905893Y-19545738D01*
X3934464Y-19560023D01*
X3948750Y-19574309D01*
X3963036Y-19602880D01*
X3977321Y-19660023D01*
X3977321Y-19731452D01*
X3963036Y-19788595D01*
X3948750Y-19817166D01*
X3934464Y-19831452D01*
X3905893Y-19845738D01*
X3877321Y-19845738D01*
X3848750Y-19831452D01*
X3834464Y-19817166D01*
X3820178Y-19788595D01*
X3805893Y-19731452D01*
X3805893Y-19660023D01*
X3820178Y-19602880D01*
X3834464Y-19574309D01*
X3848750Y-19560023D01*
X3877321Y-19545738D01*
X4105893Y-19845738D02*
X4105893Y-19645738D01*
X4105893Y-19674309D02*
X4120178Y-19660023D01*
X4148750Y-19645738D01*
X4191607Y-19645738D01*
X4220178Y-19660023D01*
X4234464Y-19688595D01*
X4234464Y-19845738D01*
X4234464Y-19688595D02*
X4248750Y-19660023D01*
X4277321Y-19645738D01*
X4320178Y-19645738D01*
X4348750Y-19660023D01*
X4363036Y-19688595D01*
X4363036Y-19845738D01*
X4505893Y-19845738D02*
X4505893Y-19645738D01*
X4505893Y-19674309D02*
X4520178Y-19660023D01*
X4548750Y-19645738D01*
X4591607Y-19645738D01*
X4620178Y-19660023D01*
X4634464Y-19688595D01*
X4634464Y-19845738D01*
X4634464Y-19688595D02*
X4648750Y-19660023D01*
X4677321Y-19645738D01*
X4720178Y-19645738D01*
X4748750Y-19660023D01*
X4763036Y-19688595D01*
X4763036Y-19845738D01*
X5348750Y-19531452D02*
X5091607Y-19917166D01*
X5734464Y-19545738D02*
X5763036Y-19545738D01*
X5791607Y-19560023D01*
X5805893Y-19574309D01*
X5820178Y-19602880D01*
X5834464Y-19660023D01*
X5834464Y-19731452D01*
X5820178Y-19788595D01*
X5805893Y-19817166D01*
X5791607Y-19831452D01*
X5763036Y-19845738D01*
X5734464Y-19845738D01*
X5705893Y-19831452D01*
X5691607Y-19817166D01*
X5677321Y-19788595D01*
X5663036Y-19731452D01*
X5663036Y-19660023D01*
X5677321Y-19602880D01*
X5691607Y-19574309D01*
X5705893Y-19560023D01*
X5734464Y-19545738D01*
X5963036Y-19817166D02*
X5977321Y-19831452D01*
X5963036Y-19845738D01*
X5948750Y-19831452D01*
X5963036Y-19817166D01*
X5963036Y-19845738D01*
X6163036Y-19545738D02*
X6191607Y-19545738D01*
X6220178Y-19560023D01*
X6234464Y-19574309D01*
X6248750Y-19602880D01*
X6263036Y-19660023D01*
X6263036Y-19731452D01*
X6248750Y-19788595D01*
X6234464Y-19817166D01*
X6220178Y-19831452D01*
X6191607Y-19845738D01*
X6163036Y-19845738D01*
X6134464Y-19831452D01*
X6120178Y-19817166D01*
X6105893Y-19788595D01*
X6091607Y-19731452D01*
X6091607Y-19660023D01*
X6105893Y-19602880D01*
X6120178Y-19574309D01*
X6134464Y-19560023D01*
X6163036Y-19545738D01*
X6534464Y-19545738D02*
X6391607Y-19545738D01*
X6377321Y-19688595D01*
X6391607Y-19674309D01*
X6420178Y-19660023D01*
X6491607Y-19660023D01*
X6520178Y-19674309D01*
X6534464Y-19688595D01*
X6548750Y-19717166D01*
X6548750Y-19788595D01*
X6534464Y-19817166D01*
X6520178Y-19831452D01*
X6491607Y-19845738D01*
X6420178Y-19845738D01*
X6391607Y-19831452D01*
X6377321Y-19817166D01*
X6648750Y-19545738D02*
X6848750Y-19545738D01*
X6720178Y-19845738D01*
X6977321Y-19845738D02*
X7034464Y-19845738D01*
X7063036Y-19831452D01*
X7077321Y-19817166D01*
X7105893Y-19774309D01*
X7120178Y-19717166D01*
X7120178Y-19602880D01*
X7105893Y-19574309D01*
X7091607Y-19560023D01*
X7063036Y-19545738D01*
X7005893Y-19545738D01*
X6977321Y-19560023D01*
X6963036Y-19574309D01*
X6948750Y-19602880D01*
X6948750Y-19674309D01*
X6963036Y-19702880D01*
X6977321Y-19717166D01*
X7005893Y-19731452D01*
X7063036Y-19731452D01*
X7091607Y-19717166D01*
X7105893Y-19702880D01*
X7120178Y-19674309D01*
X7234464Y-19545738D02*
X7234464Y-19602880D01*
X7348750Y-19545738D02*
X7348750Y-19602880D01*
X7791607Y-19960023D02*
X7777321Y-19945738D01*
X7748750Y-19902880D01*
X7734464Y-19874309D01*
X7720178Y-19831452D01*
X7705893Y-19760023D01*
X7705893Y-19702880D01*
X7720178Y-19631452D01*
X7734464Y-19588595D01*
X7748750Y-19560023D01*
X7777321Y-19517166D01*
X7791607Y-19502880D01*
X8063036Y-19845738D02*
X7891607Y-19845738D01*
X7977321Y-19845738D02*
X7977321Y-19545738D01*
X7948750Y-19588595D01*
X7920178Y-19617166D01*
X7891607Y-19631452D01*
X8320178Y-19545738D02*
X8263036Y-19545738D01*
X8234464Y-19560023D01*
X8220178Y-19574309D01*
X8191607Y-19617166D01*
X8177321Y-19674309D01*
X8177321Y-19788595D01*
X8191607Y-19817166D01*
X8205893Y-19831452D01*
X8234464Y-19845738D01*
X8291607Y-19845738D01*
X8320178Y-19831452D01*
X8334464Y-19817166D01*
X8348750Y-19788595D01*
X8348750Y-19717166D01*
X8334464Y-19688595D01*
X8320178Y-19674309D01*
X8291607Y-19660023D01*
X8234464Y-19660023D01*
X8205893Y-19674309D01*
X8191607Y-19688595D01*
X8177321Y-19717166D01*
X8605893Y-19645738D02*
X8605893Y-19845738D01*
X8534464Y-19531452D02*
X8463036Y-19745738D01*
X8648750Y-19745738D01*
X8991607Y-19845738D02*
X8991607Y-19545738D01*
X9120178Y-19845738D02*
X9120178Y-19688595D01*
X9105893Y-19660023D01*
X9077321Y-19645738D01*
X9034464Y-19645738D01*
X9005893Y-19660023D01*
X8991607Y-19674309D01*
X9305893Y-19845738D02*
X9277321Y-19831452D01*
X9263036Y-19817166D01*
X9248750Y-19788595D01*
X9248750Y-19702880D01*
X9263036Y-19674309D01*
X9277321Y-19660023D01*
X9305893Y-19645738D01*
X9348750Y-19645738D01*
X9377321Y-19660023D01*
X9391607Y-19674309D01*
X9405893Y-19702880D01*
X9405893Y-19788595D01*
X9391607Y-19817166D01*
X9377321Y-19831452D01*
X9348750Y-19845738D01*
X9305893Y-19845738D01*
X9577321Y-19845738D02*
X9548750Y-19831452D01*
X9534464Y-19802880D01*
X9534464Y-19545738D01*
X9805893Y-19831452D02*
X9777321Y-19845738D01*
X9720178Y-19845738D01*
X9691607Y-19831452D01*
X9677321Y-19802880D01*
X9677321Y-19688595D01*
X9691607Y-19660023D01*
X9720178Y-19645738D01*
X9777321Y-19645738D01*
X9805893Y-19660023D01*
X9820178Y-19688595D01*
X9820178Y-19717166D01*
X9677321Y-19745738D01*
X9934464Y-19831452D02*
X9963036Y-19845738D01*
X10020178Y-19845738D01*
X10048750Y-19831452D01*
X10063036Y-19802880D01*
X10063036Y-19788595D01*
X10048750Y-19760023D01*
X10020178Y-19745738D01*
X9977321Y-19745738D01*
X9948750Y-19731452D01*
X9934464Y-19702880D01*
X9934464Y-19688595D01*
X9948750Y-19660023D01*
X9977321Y-19645738D01*
X10020178Y-19645738D01*
X10048750Y-19660023D01*
X10163036Y-19960023D02*
X10177321Y-19945738D01*
X10205893Y-19902880D01*
X10220178Y-19874309D01*
X10234464Y-19831452D01*
X10248750Y-19760023D01*
X10248750Y-19702880D01*
X10234464Y-19631452D01*
X10220178Y-19588595D01*
X10205893Y-19560023D01*
X10177321Y-19517166D01*
X10163036Y-19502880D01*
X2383750Y-20031023D02*
X2533750Y-20181023D01*
X2533750Y-20031023D02*
X2383750Y-20181023D01*
X2458750Y-20031023D02*
X2458750Y-20181023D01*
X2383750Y-20106023D02*
X2533750Y-20106023D01*
X2977321Y-20241738D02*
X2805893Y-20241738D01*
X2891607Y-20241738D02*
X2891607Y-19941738D01*
X2863036Y-19984595D01*
X2834464Y-20013166D01*
X2805893Y-20027452D01*
X3105893Y-20213166D02*
X3120178Y-20227452D01*
X3105893Y-20241738D01*
X3091607Y-20227452D01*
X3105893Y-20213166D01*
X3105893Y-20241738D01*
X3391607Y-19941738D02*
X3248750Y-19941738D01*
X3234464Y-20084595D01*
X3248750Y-20070309D01*
X3277321Y-20056023D01*
X3348750Y-20056023D01*
X3377321Y-20070309D01*
X3391607Y-20084595D01*
X3405893Y-20113166D01*
X3405893Y-20184595D01*
X3391607Y-20213166D01*
X3377321Y-20227452D01*
X3348750Y-20241738D01*
X3277321Y-20241738D01*
X3248750Y-20227452D01*
X3234464Y-20213166D01*
X3591607Y-19941738D02*
X3620178Y-19941738D01*
X3648750Y-19956023D01*
X3663036Y-19970309D01*
X3677321Y-19998880D01*
X3691607Y-20056023D01*
X3691607Y-20127452D01*
X3677321Y-20184595D01*
X3663036Y-20213166D01*
X3648750Y-20227452D01*
X3620178Y-20241738D01*
X3591607Y-20241738D01*
X3563036Y-20227452D01*
X3548750Y-20213166D01*
X3534464Y-20184595D01*
X3520178Y-20127452D01*
X3520178Y-20056023D01*
X3534464Y-19998880D01*
X3548750Y-19970309D01*
X3563036Y-19956023D01*
X3591607Y-19941738D01*
X3877321Y-19941738D02*
X3905893Y-19941738D01*
X3934464Y-19956023D01*
X3948750Y-19970309D01*
X3963036Y-19998880D01*
X3977321Y-20056023D01*
X3977321Y-20127452D01*
X3963036Y-20184595D01*
X3948750Y-20213166D01*
X3934464Y-20227452D01*
X3905893Y-20241738D01*
X3877321Y-20241738D01*
X3848750Y-20227452D01*
X3834464Y-20213166D01*
X3820178Y-20184595D01*
X3805893Y-20127452D01*
X3805893Y-20056023D01*
X3820178Y-19998880D01*
X3834464Y-19970309D01*
X3848750Y-19956023D01*
X3877321Y-19941738D01*
X4105893Y-20241738D02*
X4105893Y-20041738D01*
X4105893Y-20070309D02*
X4120178Y-20056023D01*
X4148750Y-20041738D01*
X4191607Y-20041738D01*
X4220178Y-20056023D01*
X4234464Y-20084595D01*
X4234464Y-20241738D01*
X4234464Y-20084595D02*
X4248750Y-20056023D01*
X4277321Y-20041738D01*
X4320178Y-20041738D01*
X4348750Y-20056023D01*
X4363036Y-20084595D01*
X4363036Y-20241738D01*
X4505893Y-20241738D02*
X4505893Y-20041738D01*
X4505893Y-20070309D02*
X4520178Y-20056023D01*
X4548750Y-20041738D01*
X4591607Y-20041738D01*
X4620178Y-20056023D01*
X4634464Y-20084595D01*
X4634464Y-20241738D01*
X4634464Y-20084595D02*
X4648750Y-20056023D01*
X4677321Y-20041738D01*
X4720178Y-20041738D01*
X4748750Y-20056023D01*
X4763036Y-20084595D01*
X4763036Y-20241738D01*
X5348750Y-19927452D02*
X5091607Y-20313166D01*
X5734464Y-19941738D02*
X5763036Y-19941738D01*
X5791607Y-19956023D01*
X5805893Y-19970309D01*
X5820178Y-19998880D01*
X5834464Y-20056023D01*
X5834464Y-20127452D01*
X5820178Y-20184595D01*
X5805893Y-20213166D01*
X5791607Y-20227452D01*
X5763036Y-20241738D01*
X5734464Y-20241738D01*
X5705893Y-20227452D01*
X5691607Y-20213166D01*
X5677321Y-20184595D01*
X5663036Y-20127452D01*
X5663036Y-20056023D01*
X5677321Y-19998880D01*
X5691607Y-19970309D01*
X5705893Y-19956023D01*
X5734464Y-19941738D01*
X5963036Y-20213166D02*
X5977321Y-20227452D01*
X5963036Y-20241738D01*
X5948750Y-20227452D01*
X5963036Y-20213166D01*
X5963036Y-20241738D01*
X6163036Y-19941738D02*
X6191607Y-19941738D01*
X6220178Y-19956023D01*
X6234464Y-19970309D01*
X6248750Y-19998880D01*
X6263036Y-20056023D01*
X6263036Y-20127452D01*
X6248750Y-20184595D01*
X6234464Y-20213166D01*
X6220178Y-20227452D01*
X6191607Y-20241738D01*
X6163036Y-20241738D01*
X6134464Y-20227452D01*
X6120178Y-20213166D01*
X6105893Y-20184595D01*
X6091607Y-20127452D01*
X6091607Y-20056023D01*
X6105893Y-19998880D01*
X6120178Y-19970309D01*
X6134464Y-19956023D01*
X6163036Y-19941738D01*
X6534464Y-19941738D02*
X6391607Y-19941738D01*
X6377321Y-20084595D01*
X6391607Y-20070309D01*
X6420178Y-20056023D01*
X6491607Y-20056023D01*
X6520178Y-20070309D01*
X6534464Y-20084595D01*
X6548750Y-20113166D01*
X6548750Y-20184595D01*
X6534464Y-20213166D01*
X6520178Y-20227452D01*
X6491607Y-20241738D01*
X6420178Y-20241738D01*
X6391607Y-20227452D01*
X6377321Y-20213166D01*
X6691607Y-20241738D02*
X6748750Y-20241738D01*
X6777321Y-20227452D01*
X6791607Y-20213166D01*
X6820178Y-20170309D01*
X6834464Y-20113166D01*
X6834464Y-19998880D01*
X6820178Y-19970309D01*
X6805893Y-19956023D01*
X6777321Y-19941738D01*
X6720178Y-19941738D01*
X6691607Y-19956023D01*
X6677321Y-19970309D01*
X6663036Y-19998880D01*
X6663036Y-20070309D01*
X6677321Y-20098880D01*
X6691607Y-20113166D01*
X6720178Y-20127452D01*
X6777321Y-20127452D01*
X6805893Y-20113166D01*
X6820178Y-20098880D01*
X6834464Y-20070309D01*
X7120178Y-20241738D02*
X6948750Y-20241738D01*
X7034464Y-20241738D02*
X7034464Y-19941738D01*
X7005893Y-19984595D01*
X6977321Y-20013166D01*
X6948750Y-20027452D01*
X7234464Y-19941738D02*
X7234464Y-19998880D01*
X7348750Y-19941738D02*
X7348750Y-19998880D01*
X7791607Y-20356023D02*
X7777321Y-20341738D01*
X7748750Y-20298880D01*
X7734464Y-20270309D01*
X7720178Y-20227452D01*
X7705893Y-20156023D01*
X7705893Y-20098880D01*
X7720178Y-20027452D01*
X7734464Y-19984595D01*
X7748750Y-19956023D01*
X7777321Y-19913166D01*
X7791607Y-19898880D01*
X7963036Y-19941738D02*
X7991607Y-19941738D01*
X8020178Y-19956023D01*
X8034464Y-19970309D01*
X8048750Y-19998880D01*
X8063036Y-20056023D01*
X8063036Y-20127452D01*
X8048750Y-20184595D01*
X8034464Y-20213166D01*
X8020178Y-20227452D01*
X7991607Y-20241738D01*
X7963036Y-20241738D01*
X7934464Y-20227452D01*
X7920178Y-20213166D01*
X7905893Y-20184595D01*
X7891607Y-20127452D01*
X7891607Y-20056023D01*
X7905893Y-19998880D01*
X7920178Y-19970309D01*
X7934464Y-19956023D01*
X7963036Y-19941738D01*
X8420178Y-20241738D02*
X8420178Y-19941738D01*
X8548750Y-20241738D02*
X8548750Y-20084595D01*
X8534464Y-20056023D01*
X8505893Y-20041738D01*
X8463036Y-20041738D01*
X8434464Y-20056023D01*
X8420178Y-20070309D01*
X8734464Y-20241738D02*
X8705893Y-20227452D01*
X8691607Y-20213166D01*
X8677321Y-20184595D01*
X8677321Y-20098880D01*
X8691607Y-20070309D01*
X8705893Y-20056023D01*
X8734464Y-20041738D01*
X8777321Y-20041738D01*
X8805893Y-20056023D01*
X8820178Y-20070309D01*
X8834464Y-20098880D01*
X8834464Y-20184595D01*
X8820178Y-20213166D01*
X8805893Y-20227452D01*
X8777321Y-20241738D01*
X8734464Y-20241738D01*
X9005893Y-20241738D02*
X8977321Y-20227452D01*
X8963036Y-20198880D01*
X8963036Y-19941738D01*
X9234464Y-20227452D02*
X9205893Y-20241738D01*
X9148750Y-20241738D01*
X9120178Y-20227452D01*
X9105893Y-20198880D01*
X9105893Y-20084595D01*
X9120178Y-20056023D01*
X9148750Y-20041738D01*
X9205893Y-20041738D01*
X9234464Y-20056023D01*
X9248750Y-20084595D01*
X9248750Y-20113166D01*
X9105893Y-20141738D01*
X9363036Y-20227452D02*
X9391607Y-20241738D01*
X9448750Y-20241738D01*
X9477321Y-20227452D01*
X9491607Y-20198880D01*
X9491607Y-20184595D01*
X9477321Y-20156023D01*
X9448750Y-20141738D01*
X9405893Y-20141738D01*
X9377321Y-20127452D01*
X9363036Y-20098880D01*
X9363036Y-20084595D01*
X9377321Y-20056023D01*
X9405893Y-20041738D01*
X9448750Y-20041738D01*
X9477321Y-20056023D01*
X9848750Y-20127452D02*
X10077321Y-20127452D01*
X9963036Y-20241738D02*
X9963036Y-20013166D01*
X10434464Y-19970309D02*
X10448750Y-19956023D01*
X10477321Y-19941738D01*
X10548750Y-19941738D01*
X10577321Y-19956023D01*
X10591607Y-19970309D01*
X10605893Y-19998880D01*
X10605893Y-20027452D01*
X10591607Y-20070309D01*
X10420178Y-20241738D01*
X10605893Y-20241738D01*
X10948750Y-20227452D02*
X10977321Y-20241738D01*
X11034464Y-20241738D01*
X11063036Y-20227452D01*
X11077321Y-20198880D01*
X11077321Y-20184595D01*
X11063036Y-20156023D01*
X11034464Y-20141738D01*
X10991607Y-20141738D01*
X10963036Y-20127452D01*
X10948750Y-20098880D01*
X10948750Y-20084595D01*
X10963036Y-20056023D01*
X10991607Y-20041738D01*
X11034464Y-20041738D01*
X11063036Y-20056023D01*
X11248750Y-20241738D02*
X11220178Y-20227452D01*
X11205893Y-20198880D01*
X11205893Y-19941738D01*
X11405893Y-20241738D02*
X11377321Y-20227452D01*
X11363036Y-20213166D01*
X11348750Y-20184595D01*
X11348750Y-20098880D01*
X11363036Y-20070309D01*
X11377321Y-20056023D01*
X11405893Y-20041738D01*
X11448750Y-20041738D01*
X11477321Y-20056023D01*
X11491607Y-20070309D01*
X11505893Y-20098880D01*
X11505893Y-20184595D01*
X11491607Y-20213166D01*
X11477321Y-20227452D01*
X11448750Y-20241738D01*
X11405893Y-20241738D01*
X11591607Y-20041738D02*
X11705893Y-20041738D01*
X11634464Y-19941738D02*
X11634464Y-20198880D01*
X11648750Y-20227452D01*
X11677321Y-20241738D01*
X11705893Y-20241738D01*
X11791607Y-20227452D02*
X11820178Y-20241738D01*
X11877321Y-20241738D01*
X11905893Y-20227452D01*
X11920178Y-20198880D01*
X11920178Y-20184595D01*
X11905893Y-20156023D01*
X11877321Y-20141738D01*
X11834464Y-20141738D01*
X11805893Y-20127452D01*
X11791607Y-20098880D01*
X11791607Y-20084595D01*
X11805893Y-20056023D01*
X11834464Y-20041738D01*
X11877321Y-20041738D01*
X11905893Y-20056023D01*
X12020178Y-20356023D02*
X12034464Y-20341738D01*
X12063036Y-20298880D01*
X12077321Y-20270309D01*
X12091607Y-20227452D01*
X12105893Y-20156023D01*
X12105893Y-20098880D01*
X12091607Y-20027452D01*
X12077321Y-19984595D01*
X12063036Y-19956023D01*
X12034464Y-19913166D01*
X12020178Y-19898880D01*
X2313750Y-20392023D02*
X2533750Y-20612023D01*
X2533750Y-20392023D02*
X2313750Y-20612023D01*
X2501532Y-20579806D02*
X2501532Y-20424241D01*
X2345967Y-20424241D01*
X2345967Y-20579806D01*
X2501532Y-20579806D01*
X2805893Y-20366309D02*
X2820178Y-20352023D01*
X2848750Y-20337738D01*
X2920178Y-20337738D01*
X2948750Y-20352023D01*
X2963036Y-20366309D01*
X2977321Y-20394880D01*
X2977321Y-20423452D01*
X2963036Y-20466309D01*
X2791607Y-20637738D01*
X2977321Y-20637738D01*
X3105893Y-20609166D02*
X3120178Y-20623452D01*
X3105893Y-20637738D01*
X3091607Y-20623452D01*
X3105893Y-20609166D01*
X3105893Y-20637738D01*
X3234464Y-20366309D02*
X3248750Y-20352023D01*
X3277321Y-20337738D01*
X3348750Y-20337738D01*
X3377321Y-20352023D01*
X3391607Y-20366309D01*
X3405893Y-20394880D01*
X3405893Y-20423452D01*
X3391607Y-20466309D01*
X3220178Y-20637738D01*
X3405893Y-20637738D01*
X3591607Y-20337738D02*
X3620178Y-20337738D01*
X3648750Y-20352023D01*
X3663036Y-20366309D01*
X3677321Y-20394880D01*
X3691607Y-20452023D01*
X3691607Y-20523452D01*
X3677321Y-20580595D01*
X3663036Y-20609166D01*
X3648750Y-20623452D01*
X3620178Y-20637738D01*
X3591607Y-20637738D01*
X3563036Y-20623452D01*
X3548750Y-20609166D01*
X3534464Y-20580595D01*
X3520178Y-20523452D01*
X3520178Y-20452023D01*
X3534464Y-20394880D01*
X3548750Y-20366309D01*
X3563036Y-20352023D01*
X3591607Y-20337738D01*
X3877321Y-20337738D02*
X3905893Y-20337738D01*
X3934464Y-20352023D01*
X3948750Y-20366309D01*
X3963036Y-20394880D01*
X3977321Y-20452023D01*
X3977321Y-20523452D01*
X3963036Y-20580595D01*
X3948750Y-20609166D01*
X3934464Y-20623452D01*
X3905893Y-20637738D01*
X3877321Y-20637738D01*
X3848750Y-20623452D01*
X3834464Y-20609166D01*
X3820178Y-20580595D01*
X3805893Y-20523452D01*
X3805893Y-20452023D01*
X3820178Y-20394880D01*
X3834464Y-20366309D01*
X3848750Y-20352023D01*
X3877321Y-20337738D01*
X4105893Y-20637738D02*
X4105893Y-20437738D01*
X4105893Y-20466309D02*
X4120178Y-20452023D01*
X4148750Y-20437738D01*
X4191607Y-20437738D01*
X4220178Y-20452023D01*
X4234464Y-20480595D01*
X4234464Y-20637738D01*
X4234464Y-20480595D02*
X4248750Y-20452023D01*
X4277321Y-20437738D01*
X4320178Y-20437738D01*
X4348750Y-20452023D01*
X4363036Y-20480595D01*
X4363036Y-20637738D01*
X4505893Y-20637738D02*
X4505893Y-20437738D01*
X4505893Y-20466309D02*
X4520178Y-20452023D01*
X4548750Y-20437738D01*
X4591607Y-20437738D01*
X4620178Y-20452023D01*
X4634464Y-20480595D01*
X4634464Y-20637738D01*
X4634464Y-20480595D02*
X4648750Y-20452023D01*
X4677321Y-20437738D01*
X4720178Y-20437738D01*
X4748750Y-20452023D01*
X4763036Y-20480595D01*
X4763036Y-20637738D01*
X5348750Y-20323452D02*
X5091607Y-20709166D01*
X5734464Y-20337738D02*
X5763036Y-20337738D01*
X5791607Y-20352023D01*
X5805893Y-20366309D01*
X5820178Y-20394880D01*
X5834464Y-20452023D01*
X5834464Y-20523452D01*
X5820178Y-20580595D01*
X5805893Y-20609166D01*
X5791607Y-20623452D01*
X5763036Y-20637738D01*
X5734464Y-20637738D01*
X5705893Y-20623452D01*
X5691607Y-20609166D01*
X5677321Y-20580595D01*
X5663036Y-20523452D01*
X5663036Y-20452023D01*
X5677321Y-20394880D01*
X5691607Y-20366309D01*
X5705893Y-20352023D01*
X5734464Y-20337738D01*
X5963036Y-20609166D02*
X5977321Y-20623452D01*
X5963036Y-20637738D01*
X5948750Y-20623452D01*
X5963036Y-20609166D01*
X5963036Y-20637738D01*
X6163036Y-20337738D02*
X6191607Y-20337738D01*
X6220178Y-20352023D01*
X6234464Y-20366309D01*
X6248750Y-20394880D01*
X6263036Y-20452023D01*
X6263036Y-20523452D01*
X6248750Y-20580595D01*
X6234464Y-20609166D01*
X6220178Y-20623452D01*
X6191607Y-20637738D01*
X6163036Y-20637738D01*
X6134464Y-20623452D01*
X6120178Y-20609166D01*
X6105893Y-20580595D01*
X6091607Y-20523452D01*
X6091607Y-20452023D01*
X6105893Y-20394880D01*
X6120178Y-20366309D01*
X6134464Y-20352023D01*
X6163036Y-20337738D01*
X6434464Y-20466309D02*
X6405893Y-20452023D01*
X6391607Y-20437738D01*
X6377321Y-20409166D01*
X6377321Y-20394880D01*
X6391607Y-20366309D01*
X6405893Y-20352023D01*
X6434464Y-20337738D01*
X6491607Y-20337738D01*
X6520178Y-20352023D01*
X6534464Y-20366309D01*
X6548750Y-20394880D01*
X6548750Y-20409166D01*
X6534464Y-20437738D01*
X6520178Y-20452023D01*
X6491607Y-20466309D01*
X6434464Y-20466309D01*
X6405893Y-20480595D01*
X6391607Y-20494880D01*
X6377321Y-20523452D01*
X6377321Y-20580595D01*
X6391607Y-20609166D01*
X6405893Y-20623452D01*
X6434464Y-20637738D01*
X6491607Y-20637738D01*
X6520178Y-20623452D01*
X6534464Y-20609166D01*
X6548750Y-20580595D01*
X6548750Y-20523452D01*
X6534464Y-20494880D01*
X6520178Y-20480595D01*
X6491607Y-20466309D01*
X6805893Y-20337738D02*
X6748750Y-20337738D01*
X6720178Y-20352023D01*
X6705893Y-20366309D01*
X6677321Y-20409166D01*
X6663036Y-20466309D01*
X6663036Y-20580595D01*
X6677321Y-20609166D01*
X6691607Y-20623452D01*
X6720178Y-20637738D01*
X6777321Y-20637738D01*
X6805893Y-20623452D01*
X6820178Y-20609166D01*
X6834464Y-20580595D01*
X6834464Y-20509166D01*
X6820178Y-20480595D01*
X6805893Y-20466309D01*
X6777321Y-20452023D01*
X6720178Y-20452023D01*
X6691607Y-20466309D01*
X6677321Y-20480595D01*
X6663036Y-20509166D01*
X7091607Y-20337738D02*
X7034464Y-20337738D01*
X7005893Y-20352023D01*
X6991607Y-20366309D01*
X6963036Y-20409166D01*
X6948750Y-20466309D01*
X6948750Y-20580595D01*
X6963036Y-20609166D01*
X6977321Y-20623452D01*
X7005893Y-20637738D01*
X7063036Y-20637738D01*
X7091607Y-20623452D01*
X7105893Y-20609166D01*
X7120178Y-20580595D01*
X7120178Y-20509166D01*
X7105893Y-20480595D01*
X7091607Y-20466309D01*
X7063036Y-20452023D01*
X7005893Y-20452023D01*
X6977321Y-20466309D01*
X6963036Y-20480595D01*
X6948750Y-20509166D01*
X7234464Y-20337738D02*
X7234464Y-20394880D01*
X7348750Y-20337738D02*
X7348750Y-20394880D01*
X7791607Y-20752023D02*
X7777321Y-20737738D01*
X7748750Y-20694880D01*
X7734464Y-20666309D01*
X7720178Y-20623452D01*
X7705893Y-20552023D01*
X7705893Y-20494880D01*
X7720178Y-20423452D01*
X7734464Y-20380595D01*
X7748750Y-20352023D01*
X7777321Y-20309166D01*
X7791607Y-20294880D01*
X7948750Y-20466309D02*
X7920178Y-20452023D01*
X7905893Y-20437738D01*
X7891607Y-20409166D01*
X7891607Y-20394880D01*
X7905893Y-20366309D01*
X7920178Y-20352023D01*
X7948750Y-20337738D01*
X8005893Y-20337738D01*
X8034464Y-20352023D01*
X8048750Y-20366309D01*
X8063036Y-20394880D01*
X8063036Y-20409166D01*
X8048750Y-20437738D01*
X8034464Y-20452023D01*
X8005893Y-20466309D01*
X7948750Y-20466309D01*
X7920178Y-20480595D01*
X7905893Y-20494880D01*
X7891607Y-20523452D01*
X7891607Y-20580595D01*
X7905893Y-20609166D01*
X7920178Y-20623452D01*
X7948750Y-20637738D01*
X8005893Y-20637738D01*
X8034464Y-20623452D01*
X8048750Y-20609166D01*
X8063036Y-20580595D01*
X8063036Y-20523452D01*
X8048750Y-20494880D01*
X8034464Y-20480595D01*
X8005893Y-20466309D01*
X8420178Y-20637738D02*
X8420178Y-20337738D01*
X8548750Y-20637738D02*
X8548750Y-20480595D01*
X8534464Y-20452023D01*
X8505893Y-20437738D01*
X8463036Y-20437738D01*
X8434464Y-20452023D01*
X8420178Y-20466309D01*
X8734464Y-20637738D02*
X8705893Y-20623452D01*
X8691607Y-20609166D01*
X8677321Y-20580595D01*
X8677321Y-20494880D01*
X8691607Y-20466309D01*
X8705893Y-20452023D01*
X8734464Y-20437738D01*
X8777321Y-20437738D01*
X8805893Y-20452023D01*
X8820178Y-20466309D01*
X8834464Y-20494880D01*
X8834464Y-20580595D01*
X8820178Y-20609166D01*
X8805893Y-20623452D01*
X8777321Y-20637738D01*
X8734464Y-20637738D01*
X9005893Y-20637738D02*
X8977321Y-20623452D01*
X8963036Y-20594880D01*
X8963036Y-20337738D01*
X9234464Y-20623452D02*
X9205893Y-20637738D01*
X9148750Y-20637738D01*
X9120178Y-20623452D01*
X9105893Y-20594880D01*
X9105893Y-20480595D01*
X9120178Y-20452023D01*
X9148750Y-20437738D01*
X9205893Y-20437738D01*
X9234464Y-20452023D01*
X9248750Y-20480595D01*
X9248750Y-20509166D01*
X9105893Y-20537738D01*
X9363036Y-20623452D02*
X9391607Y-20637738D01*
X9448750Y-20637738D01*
X9477321Y-20623452D01*
X9491607Y-20594880D01*
X9491607Y-20580595D01*
X9477321Y-20552023D01*
X9448750Y-20537738D01*
X9405893Y-20537738D01*
X9377321Y-20523452D01*
X9363036Y-20494880D01*
X9363036Y-20480595D01*
X9377321Y-20452023D01*
X9405893Y-20437738D01*
X9448750Y-20437738D01*
X9477321Y-20452023D01*
X9591607Y-20752023D02*
X9605893Y-20737738D01*
X9634464Y-20694880D01*
X9648750Y-20666309D01*
X9663036Y-20623452D01*
X9677321Y-20552023D01*
X9677321Y-20494880D01*
X9663036Y-20423452D01*
X9648750Y-20380595D01*
X9634464Y-20352023D01*
X9605893Y-20309166D01*
X9591607Y-20294880D01*
M02*
